<mxfile host="app.diagrams.net" modified="2024-05-07T01:32:39.563Z" agent="Mozilla/5.0 (Windows NT 10.0; Win64; x64) AppleWebKit/537.36 (KHTML, like Gecko) Chrome/124.0.0.0 Safari/537.36" etag="SuphlhnG7sK4W0jMSAOz" version="24.3.1" type="device" pages="4">
  <diagram id="OmUJoCWDqueXoq5qpoTA" name="Contexto">
    <mxGraphModel dx="1793" dy="923" grid="0" gridSize="10" guides="1" tooltips="1" connect="1" arrows="1" fold="1" page="1" pageScale="1" pageWidth="1169" pageHeight="827" math="0" shadow="0">
      <root>
        <mxCell id="rQmnXUWkHWz6gbuiEZhC-0" />
        <mxCell id="rQmnXUWkHWz6gbuiEZhC-1" parent="rQmnXUWkHWz6gbuiEZhC-0" />
        <object placeholders="1" c4Name="2lig" c4Type="DeploymentNode" c4OperationSystem="Integrador" c4ScalingFactor="SAAS" label="&lt;div style=&quot;text-align: left&quot;&gt;%c4Name%&lt;/div&gt;&lt;div style=&quot;text-align: left&quot;&gt;[%c4OperationSystem%]&lt;/div&gt;&lt;div style=&quot;text-align: right&quot;&gt;%c4ScalingFactor%&lt;/div&gt;" id="T5_YlXjmJw3T4DvJY53T-0">
          <mxCell style="rounded=1;whiteSpace=wrap;html=1;labelBackgroundColor=none;fillColor=#ffffff;fontColor=#000000;align=left;arcSize=5;strokeColor=#000000;verticalAlign=bottom;metaEdit=1;metaData={&quot;c4Type&quot;:{&quot;editable&quot;:false}};points=[[0.25,0,0],[0.5,0,0],[0.75,0,0],[1,0.25,0],[1,0.5,0],[1,0.75,0],[0.75,1,0],[0.5,1,0],[0.25,1,0],[0,0.75,0],[0,0.5,0],[0,0.25,0]];" vertex="1" parent="rQmnXUWkHWz6gbuiEZhC-1">
            <mxGeometry x="462" y="233" width="432" height="262" as="geometry" />
          </mxCell>
        </object>
        <object placeholders="1" c4Name="ERP" c4Type="DeploymentNode" c4OperationSystem="KPL" c4ScalingFactor="SAAS" label="&lt;div style=&quot;text-align: left&quot;&gt;%c4Name%&lt;/div&gt;&lt;div style=&quot;text-align: left&quot;&gt;[%c4OperationSystem%]&lt;/div&gt;&lt;div style=&quot;text-align: right&quot;&gt;%c4ScalingFactor%&lt;/div&gt;" id="KFLF6ZdXOJX_RJRnBaBo-0">
          <mxCell style="rounded=1;whiteSpace=wrap;html=1;labelBackgroundColor=none;fillColor=#ffffff;fontColor=#000000;align=left;arcSize=5;strokeColor=#000000;verticalAlign=bottom;metaEdit=1;metaData={&quot;c4Type&quot;:{&quot;editable&quot;:false}};points=[[0.25,0,0],[0.5,0,0],[0.75,0,0],[1,0.25,0],[1,0.5,0],[1,0.75,0],[0.75,1,0],[0.5,1,0],[0.25,1,0],[0,0.75,0],[0,0.5,0],[0,0.25,0]];" parent="rQmnXUWkHWz6gbuiEZhC-1" vertex="1">
            <mxGeometry x="50" y="570" width="844" height="262" as="geometry" />
          </mxCell>
        </object>
        <object placeholders="1" c4Name="VTEX" c4Type="DeploymentNode" c4OperationSystem="Ecommerce" c4ScalingFactor="SAAS" label="&lt;div style=&quot;text-align: left&quot;&gt;%c4Name%&lt;/div&gt;&lt;div style=&quot;text-align: left&quot;&gt;[%c4OperationSystem%]&lt;/div&gt;&lt;div style=&quot;text-align: right&quot;&gt;%c4ScalingFactor%&lt;/div&gt;" id="KFLF6ZdXOJX_RJRnBaBo-1">
          <mxCell style="rounded=1;whiteSpace=wrap;html=1;labelBackgroundColor=none;fillColor=#ffffff;fontColor=#000000;align=left;arcSize=5;strokeColor=#000000;verticalAlign=bottom;metaEdit=1;metaData={&quot;c4Type&quot;:{&quot;editable&quot;:false}};points=[[0.25,0,0],[0.5,0,0],[0.75,0,0],[1,0.25,0],[1,0.5,0],[1,0.75,0],[0.75,1,0],[0.5,1,0],[0.25,1,0],[0,0.75,0],[0,0.5,0],[0,0.25,0]];" parent="rQmnXUWkHWz6gbuiEZhC-1" vertex="1">
            <mxGeometry x="43" y="233" width="392" height="262" as="geometry" />
          </mxCell>
        </object>
        <object c4Name="Cliente Ecommerce" c4Type="Person" c4Description="Pedidos Ecommerce" label="&lt;b&gt;%c4Name%&lt;/b&gt;&lt;div&gt;[%c4Type%]&lt;/div&gt;&lt;br&gt;&lt;div&gt;%c4Description%&lt;/div&gt;" placeholders="1" id="n2CyttAYtpI47QcJ2L-a-0">
          <mxCell style="html=1;dashed=0;whitespace=wrap;fillColor=#dae8fc;strokeColor=#6c8ebf;shape=mxgraph.c4.person;align=center;metaEdit=1;points=[[0.5,0,0],[1,0.5,0],[1,0.75,0],[0.75,1,0],[0.5,1,0],[0.25,1,0],[0,0.75,0],[0,0.5,0]];metaData={&quot;c4Type&quot;:{&quot;editable&quot;:false}};gradientColor=#7ea6e0;" parent="rQmnXUWkHWz6gbuiEZhC-1" vertex="1">
            <mxGeometry x="96" y="270" width="168" height="169" as="geometry" />
          </mxCell>
        </object>
        <object c4Name="Operação" c4Type="Person" c4Description="Suporta Operação" label="&lt;b&gt;%c4Name%&lt;/b&gt;&lt;div&gt;[%c4Type%]&lt;/div&gt;&lt;br&gt;&lt;div&gt;%c4Description%&lt;/div&gt;" placeholders="1" id="n2CyttAYtpI47QcJ2L-a-1">
          <mxCell style="html=1;dashed=0;whitespace=wrap;fillColor=#f5f5f5;strokeColor=#666666;shape=mxgraph.c4.person;align=center;metaEdit=1;points=[[0.5,0,0],[1,0.5,0],[1,0.75,0],[0.75,1,0],[0.5,1,0],[0.25,1,0],[0,0.75,0],[0,0.5,0]];metaData={&quot;c4Type&quot;:{&quot;editable&quot;:false}};gradientColor=#b3b3b3;" parent="rQmnXUWkHWz6gbuiEZhC-1" vertex="1">
            <mxGeometry x="99" y="603" width="168" height="169" as="geometry" />
          </mxCell>
        </object>
        <object placeholders="1" c4Name="Integrador" c4Type="Software System" c4Description="2Lig" label="&lt;b&gt;%c4Name%&lt;/b&gt;&lt;div&gt;[%c4Type%]&lt;/div&gt;&lt;br&gt;&lt;div&gt;%c4Description%&lt;/div&gt;" link="data:page/id,cWcS566nQDhOLLqAMVER" id="KFLF6ZdXOJX_RJRnBaBo-2">
          <mxCell style="rounded=1;whiteSpace=wrap;html=1;labelBackgroundColor=none;fillColor=#1168BD;fontColor=#ffffff;align=center;arcSize=10;strokeColor=#1168BD;metaEdit=1;metaData={&quot;c4Type&quot;:{&quot;editable&quot;:false}};points=[[0.25,0,0],[0.5,0,0],[0.75,0,0],[1,0.25,0],[1,0.5,0],[1,0.75,0],[0.75,1,0],[0.5,1,0],[0.25,1,0],[0,0.75,0],[0,0.5,0],[0,0.25,0]];" parent="rQmnXUWkHWz6gbuiEZhC-1" vertex="1">
            <mxGeometry x="569" y="315.5" width="160" height="110.00000000000001" as="geometry" />
          </mxCell>
        </object>
        <object placeholders="1" c4Name="KPL ERP" c4Type="Software System" c4Description="Faturamento / Separação / Expedição" label="&lt;b&gt;%c4Name%&lt;/b&gt;&lt;div&gt;[%c4Type%]&lt;/div&gt;&lt;br&gt;&lt;div&gt;%c4Description%&lt;/div&gt;" link="data:page/id,cWcS566nQDhOLLqAMVER" id="KFLF6ZdXOJX_RJRnBaBo-3">
          <mxCell style="rounded=1;whiteSpace=wrap;html=1;labelBackgroundColor=none;fillColor=#1168BD;fontColor=#ffffff;align=center;arcSize=10;strokeColor=#1168BD;metaEdit=1;metaData={&quot;c4Type&quot;:{&quot;editable&quot;:false}};points=[[0.25,0,0],[0.5,0,0],[0.75,0,0],[1,0.25,0],[1,0.5,0],[1,0.75,0],[0.75,1,0],[0.5,1,0],[0.25,1,0],[0,0.75,0],[0,0.5,0],[0,0.25,0]];" parent="rQmnXUWkHWz6gbuiEZhC-1" vertex="1">
            <mxGeometry x="577" y="649" width="160" height="110.00000000000001" as="geometry" />
          </mxCell>
        </object>
        <object placeholders="1" c4Type="Relationship" c4Technology="" c4Description="Opera" label="&lt;div style=&quot;text-align: left&quot;&gt;&lt;div style=&quot;text-align: center&quot;&gt;&lt;b&gt;%c4Description%&lt;/b&gt;&lt;/div&gt;&lt;div style=&quot;text-align: center&quot;&gt;[%c4Technology%]&lt;/div&gt;&lt;/div&gt;" id="AAlDYxJro5xBDRQKTyXW-0">
          <mxCell style="edgeStyle=none;rounded=0;html=1;jettySize=auto;orthogonalLoop=1;strokeColor=#707070;strokeWidth=2;fontColor=#707070;jumpStyle=none;dashed=1;metaEdit=1;metaData={&quot;c4Type&quot;:{&quot;editable&quot;:false}};" parent="rQmnXUWkHWz6gbuiEZhC-1" target="KFLF6ZdXOJX_RJRnBaBo-3" edge="1">
            <mxGeometry x="-0.2157" y="10" width="160" relative="1" as="geometry">
              <mxPoint x="264" y="704" as="sourcePoint" />
              <mxPoint x="484" y="675" as="targetPoint" />
              <mxPoint as="offset" />
              <Array as="points" />
            </mxGeometry>
          </mxCell>
        </object>
        <object placeholders="1" c4Type="Relationship" c4Technology="" c4Description="Consome API" label="&lt;div style=&quot;text-align: left&quot;&gt;&lt;div style=&quot;text-align: center&quot;&gt;&lt;b&gt;%c4Description%&lt;/b&gt;&lt;/div&gt;&lt;div style=&quot;text-align: center&quot;&gt;[%c4Technology%]&lt;/div&gt;&lt;/div&gt;" id="AAlDYxJro5xBDRQKTyXW-1">
          <mxCell style="edgeStyle=none;rounded=0;html=1;jettySize=auto;orthogonalLoop=1;strokeColor=#707070;strokeWidth=2;fontColor=#707070;jumpStyle=none;dashed=1;metaEdit=1;metaData={&quot;c4Type&quot;:{&quot;editable&quot;:false}};entryX=0;entryY=0.5;entryDx=0;entryDy=0;entryPerimeter=0;" parent="rQmnXUWkHWz6gbuiEZhC-1" target="KFLF6ZdXOJX_RJRnBaBo-2" edge="1">
            <mxGeometry x="-0.2157" y="10" width="160" relative="1" as="geometry">
              <mxPoint x="264" y="371.59" as="sourcePoint" />
              <mxPoint x="350" y="369" as="targetPoint" />
              <mxPoint as="offset" />
              <Array as="points" />
            </mxGeometry>
          </mxCell>
        </object>
        <object placeholders="1" c4Name="webservice SOAP" c4Type="DeploymentNode" c4OperationSystem="API" c4ScalingFactor="SAAS" label="&lt;div style=&quot;text-align: left&quot;&gt;%c4Name%&lt;/div&gt;&lt;div style=&quot;text-align: left&quot;&gt;[%c4OperationSystem%]&lt;/div&gt;&lt;div style=&quot;text-align: right&quot;&gt;%c4ScalingFactor%&lt;/div&gt;" id="kbvaQ332rTUfjRXShiLJ-0">
          <mxCell style="rounded=1;whiteSpace=wrap;html=1;labelBackgroundColor=none;fillColor=#ffffff;fontColor=#000000;align=left;arcSize=5;strokeColor=#000000;verticalAlign=bottom;metaEdit=1;metaData={&quot;c4Type&quot;:{&quot;editable&quot;:false}};points=[[0.25,0,0],[0.5,0,0],[0.75,0,0],[1,0.25,0],[1,0.5,0],[1,0.75,0],[0.75,1,0],[0.5,1,0],[0.25,1,0],[0,0.75,0],[0,0.5,0],[0,0.25,0]];" parent="rQmnXUWkHWz6gbuiEZhC-1" vertex="1">
            <mxGeometry x="952" y="184" width="267" height="705" as="geometry" />
          </mxCell>
        </object>
        <object placeholders="1" c4Name="Webservice Soap XML" c4Type="Software System" c4Description="Integração de Pedidos" label="&lt;b&gt;%c4Name%&lt;/b&gt;&lt;div&gt;[%c4Type%]&lt;/div&gt;&lt;br&gt;&lt;div&gt;%c4Description%&lt;/div&gt;" id="kbvaQ332rTUfjRXShiLJ-1">
          <mxCell style="rounded=1;whiteSpace=wrap;html=1;labelBackgroundColor=none;fillColor=#dae8fc;align=center;arcSize=10;strokeColor=#6c8ebf;metaEdit=1;metaData={&quot;c4Type&quot;:{&quot;editable&quot;:false}};points=[[0.25,0,0],[0.5,0,0],[0.75,0,0],[1,0.25,0],[1,0.5,0],[1,0.75,0],[0.75,1,0],[0.5,1,0],[0.25,1,0],[0,0.75,0],[0,0.5,0],[0,0.25,0]];gradientColor=#7ea6e0;" parent="rQmnXUWkHWz6gbuiEZhC-1" vertex="1">
            <mxGeometry x="1005.5" y="481.5" width="160" height="110.00000000000001" as="geometry" />
          </mxCell>
        </object>
        <object placeholders="1" c4Type="Relationship" c4Technology="" c4Description="Integra Pedidos" label="&lt;div style=&quot;text-align: left&quot;&gt;&lt;div style=&quot;text-align: center&quot;&gt;&lt;b&gt;%c4Description%&lt;/b&gt;&lt;/div&gt;&lt;div style=&quot;text-align: center&quot;&gt;[%c4Technology%]&lt;/div&gt;&lt;/div&gt;" id="kbvaQ332rTUfjRXShiLJ-2">
          <mxCell style="edgeStyle=none;rounded=0;html=1;jettySize=auto;orthogonalLoop=1;strokeColor=#707070;strokeWidth=2;fontColor=#707070;jumpStyle=none;dashed=1;metaEdit=1;metaData={&quot;c4Type&quot;:{&quot;editable&quot;:false}};" parent="rQmnXUWkHWz6gbuiEZhC-1" edge="1">
            <mxGeometry x="-0.2157" y="10" width="160" relative="1" as="geometry">
              <mxPoint x="719" y="380.0399999999999" as="sourcePoint" />
              <mxPoint x="1086" y="489" as="targetPoint" />
              <mxPoint as="offset" />
              <Array as="points">
                <mxPoint x="1086" y="380" />
              </Array>
            </mxGeometry>
          </mxCell>
        </object>
        <object placeholders="1" c4Type="Relationship" c4Technology="" c4Description="Usa" label="&lt;div style=&quot;text-align: left&quot;&gt;&lt;div style=&quot;text-align: center&quot;&gt;&lt;b&gt;%c4Description%&lt;/b&gt;&lt;/div&gt;&lt;div style=&quot;text-align: center&quot;&gt;[%c4Technology%]&lt;/div&gt;&lt;/div&gt;" id="kbvaQ332rTUfjRXShiLJ-3">
          <mxCell style="edgeStyle=none;rounded=0;html=1;jettySize=auto;orthogonalLoop=1;strokeColor=#707070;strokeWidth=2;fontColor=#707070;jumpStyle=none;dashed=1;metaEdit=1;metaData={&quot;c4Type&quot;:{&quot;editable&quot;:false}};entryX=0;entryY=0.5;entryDx=0;entryDy=0;entryPerimeter=0;" parent="rQmnXUWkHWz6gbuiEZhC-1" target="IZ723ijIGK7ePrLNVZIa-0" edge="1">
            <mxGeometry x="-0.2157" y="10" width="160" relative="1" as="geometry">
              <mxPoint x="732" y="708.04" as="sourcePoint" />
              <mxPoint x="1099.04" y="912" as="targetPoint" />
              <mxPoint as="offset" />
              <Array as="points" />
            </mxGeometry>
          </mxCell>
        </object>
        <mxCell id="WsMjVOm7o_M56YIm6TGf-1" value="&lt;h1 style=&quot;margin-top: 0px;&quot;&gt;Dores&lt;/h1&gt;&lt;div&gt;- Gargalo de Pedidos&lt;/div&gt;&lt;div&gt;- Limitação de 10 mil pedidos/dia&amp;nbsp;&lt;/div&gt;&lt;div&gt;&lt;br&gt;&lt;/div&gt;" style="text;html=1;whiteSpace=wrap;overflow=hidden;rounded=0;" vertex="1" parent="rQmnXUWkHWz6gbuiEZhC-1">
          <mxGeometry x="1284" y="439" width="232" height="120" as="geometry" />
        </mxCell>
        <object placeholders="1" c4Name="Armazenamento" c4Type="Software System" c4Description="Integração de Pedidos / Faturamento" label="&lt;b&gt;%c4Name%&lt;/b&gt;&lt;div&gt;[%c4Type%]&lt;/div&gt;&lt;br&gt;&lt;div&gt;%c4Description%&lt;/div&gt;" id="IZ723ijIGK7ePrLNVZIa-0">
          <mxCell style="rounded=1;whiteSpace=wrap;html=1;labelBackgroundColor=none;fillColor=#dae8fc;align=center;arcSize=10;strokeColor=#6c8ebf;metaEdit=1;metaData={&quot;c4Type&quot;:{&quot;editable&quot;:false}};points=[[0.25,0,0],[0.5,0,0],[0.75,0,0],[1,0.25,0],[1,0.5,0],[1,0.75,0],[0.75,1,0],[0.5,1,0],[0.25,1,0],[0,0.75,0],[0,0.5,0],[0,0.25,0]];gradientColor=#7ea6e0;" vertex="1" parent="rQmnXUWkHWz6gbuiEZhC-1">
            <mxGeometry x="1008" y="653" width="160" height="110.00000000000001" as="geometry" />
          </mxCell>
        </object>
        <mxCell id="IZ723ijIGK7ePrLNVZIa-1" value="" style="endArrow=classic;html=1;rounded=0;entryX=0.5;entryY=0;entryDx=0;entryDy=0;entryPerimeter=0;" edge="1" parent="rQmnXUWkHWz6gbuiEZhC-1" source="kbvaQ332rTUfjRXShiLJ-1" target="IZ723ijIGK7ePrLNVZIa-0">
          <mxGeometry width="50" height="50" relative="1" as="geometry">
            <mxPoint x="903" y="574" as="sourcePoint" />
            <mxPoint x="953" y="524" as="targetPoint" />
          </mxGeometry>
        </mxCell>
      </root>
    </mxGraphModel>
  </diagram>
  <diagram id="cWcS566nQDhOLLqAMVER" name="Contaimer">
    <mxGraphModel dx="2607" dy="1342" grid="0" gridSize="10" guides="0" tooltips="1" connect="1" arrows="1" fold="1" page="1" pageScale="1" pageWidth="827" pageHeight="1169" math="0" shadow="0">
      <root>
        <mxCell id="0" />
        <mxCell id="1" parent="0" />
        <object placeholders="1" c4Name="Client Envirolment" c4Type="DeploymentNode" c4OperationSystem="" c4ScalingFactor="" label="&lt;div style=&quot;text-align: left&quot;&gt;%c4Name%&lt;/div&gt;&lt;div style=&quot;text-align: left&quot;&gt;[%c4OperationSystem%]&lt;/div&gt;&lt;div style=&quot;text-align: right&quot;&gt;%c4ScalingFactor%&lt;/div&gt;" id="6Pm6-BvvKO2H3pWIC4Nk-21">
          <mxCell style="rounded=1;whiteSpace=wrap;html=1;labelBackgroundColor=none;fillColor=#ffffff;fontColor=#000000;align=left;arcSize=5;strokeColor=#000000;verticalAlign=bottom;metaEdit=1;metaData={&quot;c4Type&quot;:{&quot;editable&quot;:false}};points=[[0.25,0,0],[0.5,0,0],[0.75,0,0],[1,0.25,0],[1,0.5,0],[1,0.75,0],[0.75,1,0],[0.5,1,0],[0.25,1,0],[0,0.75,0],[0,0.5,0],[0,0.25,0]];" parent="1" vertex="1">
            <mxGeometry x="46" y="71" width="1300" height="945" as="geometry" />
          </mxCell>
        </object>
        <object placeholders="1" c4Name="2Lig" c4Type="DeploymentNode" c4OperationSystem="Integrador" c4ScalingFactor="SAAS" label="&lt;div style=&quot;text-align: left&quot;&gt;%c4Name%&lt;/div&gt;&lt;div style=&quot;text-align: left&quot;&gt;[%c4OperationSystem%]&lt;/div&gt;&lt;div style=&quot;text-align: right&quot;&gt;%c4ScalingFactor%&lt;/div&gt;" id="AY8ovK6SVIOUIteNGLBJ-7">
          <mxCell style="rounded=1;whiteSpace=wrap;html=1;labelBackgroundColor=none;fillColor=#ffffff;fontColor=#000000;align=left;arcSize=5;strokeColor=#000000;verticalAlign=bottom;metaEdit=1;metaData={&quot;c4Type&quot;:{&quot;editable&quot;:false}};points=[[0.25,0,0],[0.5,0,0],[0.75,0,0],[1,0.25,0],[1,0.5,0],[1,0.75,0],[0.75,1,0],[0.5,1,0],[0.25,1,0],[0,0.75,0],[0,0.5,0],[0,0.25,0]];" vertex="1" parent="1">
            <mxGeometry x="718" y="88" width="586" height="414" as="geometry" />
          </mxCell>
        </object>
        <object placeholders="1" c4Name="Armazenamento" c4Type="DeploymentNode" c4OperationSystem="API" c4ScalingFactor="SAAS" label="&lt;div style=&quot;text-align: left&quot;&gt;%c4Name%&lt;/div&gt;&lt;div style=&quot;text-align: left&quot;&gt;[%c4OperationSystem%]&lt;/div&gt;&lt;div style=&quot;text-align: right&quot;&gt;%c4ScalingFactor%&lt;/div&gt;" id="iDf1yMDSKFGEPbIzJbsE-1">
          <mxCell style="rounded=1;whiteSpace=wrap;html=1;labelBackgroundColor=none;fillColor=#ffffff;fontColor=#000000;align=left;arcSize=5;strokeColor=#000000;verticalAlign=bottom;metaEdit=1;metaData={&quot;c4Type&quot;:{&quot;editable&quot;:false}};points=[[0.25,0,0],[0.5,0,0],[0.75,0,0],[1,0.25,0],[1,0.5,0],[1,0.75,0],[0.75,1,0],[0.5,1,0],[0.25,1,0],[0,0.75,0],[0,0.5,0],[0,0.25,0]];" parent="1" vertex="1">
            <mxGeometry x="1387" y="74" width="267" height="949" as="geometry" />
          </mxCell>
        </object>
        <object placeholders="1" c4Name="ERP" c4Type="DeploymentNode" c4OperationSystem="KPL" c4ScalingFactor="SAAS" label="&lt;div style=&quot;text-align: left&quot;&gt;%c4Name%&lt;/div&gt;&lt;div style=&quot;text-align: left&quot;&gt;[%c4OperationSystem%]&lt;/div&gt;&lt;div style=&quot;text-align: right&quot;&gt;%c4ScalingFactor%&lt;/div&gt;" id="6Pm6-BvvKO2H3pWIC4Nk-81">
          <mxCell style="rounded=1;whiteSpace=wrap;html=1;labelBackgroundColor=none;fillColor=#ffffff;fontColor=#000000;align=left;arcSize=5;strokeColor=#000000;verticalAlign=bottom;metaEdit=1;metaData={&quot;c4Type&quot;:{&quot;editable&quot;:false}};points=[[0.25,0,0],[0.5,0,0],[0.75,0,0],[1,0.25,0],[1,0.5,0],[1,0.75,0],[0.75,1,0],[0.5,1,0],[0.25,1,0],[0,0.75,0],[0,0.5,0],[0,0.25,0]];" parent="1" vertex="1">
            <mxGeometry x="289" y="520" width="1025" height="448" as="geometry" />
          </mxCell>
        </object>
        <object placeholders="1" c4Name="VTEX" c4Type="DeploymentNode" c4OperationSystem="Ecommerce" c4ScalingFactor="SAAS" label="&lt;div style=&quot;text-align: left&quot;&gt;%c4Name%&lt;/div&gt;&lt;div style=&quot;text-align: left&quot;&gt;[%c4OperationSystem%]&lt;/div&gt;&lt;div style=&quot;text-align: right&quot;&gt;%c4ScalingFactor%&lt;/div&gt;" id="80l2wmMz_ZBJQOmUE3gU-2">
          <mxCell style="rounded=1;whiteSpace=wrap;html=1;labelBackgroundColor=none;fillColor=#ffffff;fontColor=#000000;align=left;arcSize=5;strokeColor=#000000;verticalAlign=bottom;metaEdit=1;metaData={&quot;c4Type&quot;:{&quot;editable&quot;:false}};points=[[0.25,0,0],[0.5,0,0],[0.75,0,0],[1,0.25,0],[1,0.5,0],[1,0.75,0],[0.75,1,0],[0.5,1,0],[0.25,1,0],[0,0.75,0],[0,0.5,0],[0,0.25,0]];" parent="1" vertex="1">
            <mxGeometry x="71" y="95" width="562" height="414" as="geometry" />
          </mxCell>
        </object>
        <object c4Name="Cliente E-commerce" c4Type="Person" c4Description="Compras pelo Site" label="&lt;b&gt;%c4Name%&lt;/b&gt;&lt;div&gt;[%c4Type%]&lt;/div&gt;&lt;br&gt;&lt;div&gt;%c4Description%&lt;/div&gt;" placeholders="1" id="80l2wmMz_ZBJQOmUE3gU-1">
          <mxCell style="html=1;dashed=0;whitespace=wrap;fillColor=#dae8fc;strokeColor=#6c8ebf;shape=mxgraph.c4.person;align=center;metaEdit=1;points=[[0.5,0,0],[1,0.5,0],[1,0.75,0],[0.75,1,0],[0.5,1,0],[0.25,1,0],[0,0.75,0],[0,0.5,0]];metaData={&quot;c4Type&quot;:{&quot;editable&quot;:false}};gradientColor=#7ea6e0;" parent="1" vertex="1">
            <mxGeometry x="105" y="163" width="168" height="169" as="geometry" />
          </mxCell>
        </object>
        <object c4Name="Operação" c4Type="Person" c4Description="Suporte Operação" label="&lt;b&gt;%c4Name%&lt;/b&gt;&lt;div&gt;[%c4Type%]&lt;/div&gt;&lt;br&gt;&lt;div&gt;%c4Description%&lt;/div&gt;" placeholders="1" id="80l2wmMz_ZBJQOmUE3gU-6">
          <mxCell style="html=1;dashed=0;whitespace=wrap;fillColor=#f5f5f5;strokeColor=#666666;shape=mxgraph.c4.person;align=center;metaEdit=1;points=[[0.5,0,0],[1,0.5,0],[1,0.75,0],[0.75,1,0],[0.5,1,0],[0.25,1,0],[0,0.75,0],[0,0.5,0]];metaData={&quot;c4Type&quot;:{&quot;editable&quot;:false}};gradientColor=#b3b3b3;" parent="1" vertex="1">
            <mxGeometry x="99" y="603" width="168" height="169" as="geometry" />
          </mxCell>
        </object>
        <object placeholders="1" c4Type="Relationship" c4Technology="" c4Description="Usa" label="&lt;div style=&quot;text-align: left&quot;&gt;&lt;div style=&quot;text-align: center&quot;&gt;&lt;b&gt;%c4Description%&lt;/b&gt;&lt;/div&gt;&lt;div style=&quot;text-align: center&quot;&gt;[%c4Technology%]&lt;/div&gt;&lt;/div&gt;" id="6Pm6-BvvKO2H3pWIC4Nk-16">
          <mxCell style="edgeStyle=none;rounded=0;html=1;jettySize=auto;orthogonalLoop=1;strokeColor=#707070;strokeWidth=2;fontColor=#707070;jumpStyle=none;dashed=1;metaEdit=1;metaData={&quot;c4Type&quot;:{&quot;editable&quot;:false}};entryX=0.5;entryY=1;entryDx=0;entryDy=0;entryPerimeter=0;" parent="1" target="6Pm6-BvvKO2H3pWIC4Nk-35" edge="1">
            <mxGeometry x="-0.2157" y="10" width="160" relative="1" as="geometry">
              <mxPoint x="912" y="384" as="sourcePoint" />
              <mxPoint x="952" y="384" as="targetPoint" />
              <mxPoint as="offset" />
            </mxGeometry>
          </mxCell>
        </object>
        <object placeholders="1" c4Type="Relationship" c4Technology="" c4Description="Acessa" label="&lt;div style=&quot;text-align: left&quot;&gt;&lt;div style=&quot;text-align: center&quot;&gt;&lt;b&gt;%c4Description%&lt;/b&gt;&lt;/div&gt;&lt;div style=&quot;text-align: center&quot;&gt;[%c4Technology%]&lt;/div&gt;&lt;/div&gt;" id="6Pm6-BvvKO2H3pWIC4Nk-20">
          <mxCell style="edgeStyle=none;rounded=0;html=1;jettySize=auto;orthogonalLoop=1;strokeColor=#707070;strokeWidth=2;fontColor=#707070;jumpStyle=none;dashed=1;metaEdit=1;metaData={&quot;c4Type&quot;:{&quot;editable&quot;:false}};entryX=0.011;entryY=0.595;entryDx=0;entryDy=0;entryPerimeter=0;" parent="1" source="80l2wmMz_ZBJQOmUE3gU-1" target="6Pm6-BvvKO2H3pWIC4Nk-26" edge="1">
            <mxGeometry x="-0.2157" y="10" width="160" relative="1" as="geometry">
              <mxPoint x="271.99800000000005" y="257.0280000000001" as="sourcePoint" />
              <mxPoint x="357" y="257" as="targetPoint" />
              <mxPoint as="offset" />
              <Array as="points">
                <mxPoint x="194" y="458" />
              </Array>
            </mxGeometry>
          </mxCell>
        </object>
        <object placeholders="1" c4Name="" c4Type="Component" c4Technology="technology" c4Description="Front End E-Commerce" label="&lt;b&gt;%c4Name%&lt;/b&gt;&lt;div&gt;[%c4Type%: %c4Technology%]&lt;/div&gt;&lt;br&gt;&lt;div&gt;%c4Description%&lt;/div&gt;" link="data:page/id,z-gVikQ5z3uHVlFhHRUU" id="6Pm6-BvvKO2H3pWIC4Nk-26">
          <mxCell style="rounded=1;whiteSpace=wrap;html=1;labelBackgroundColor=none;fillColor=#dae8fc;align=center;arcSize=10;strokeColor=#6c8ebf;metaEdit=1;metaData={&quot;c4Type&quot;:{&quot;editable&quot;:false}};points=[[0.25,0,0],[0.5,0,0],[0.75,0,0],[1,0.25,0],[1,0.5,0],[1,0.75,0],[0.75,1,0],[0.5,1,0],[0.25,1,0],[0,0.75,0],[0,0.5,0],[0,0.25,0]];gradientColor=#7ea6e0;" parent="1" vertex="1">
            <mxGeometry x="391" y="393" width="160" height="110.00000000000001" as="geometry" />
          </mxCell>
        </object>
        <object placeholders="1" c4Name="" c4Type="Component" c4Technology="technology" c4Description="Portal de Configuração" label="&lt;b&gt;%c4Name%&lt;/b&gt;&lt;div&gt;[%c4Type%: %c4Technology%]&lt;/div&gt;&lt;br&gt;&lt;div&gt;%c4Description%&lt;/div&gt;" link="data:page/id,z-gVikQ5z3uHVlFhHRUU" id="6Pm6-BvvKO2H3pWIC4Nk-32">
          <mxCell style="rounded=1;whiteSpace=wrap;html=1;labelBackgroundColor=none;fillColor=#dae8fc;align=center;arcSize=10;strokeColor=#6c8ebf;metaEdit=1;metaData={&quot;c4Type&quot;:{&quot;editable&quot;:false}};points=[[0.25,0,0],[0.5,0,0],[0.75,0,0],[1,0.25,0],[1,0.5,0],[1,0.75,0],[0.75,1,0],[0.5,1,0],[0.25,1,0],[0,0.75,0],[0,0.5,0],[0,0.25,0]];gradientColor=#7ea6e0;" parent="1" vertex="1">
            <mxGeometry x="830" y="378" width="160" height="110.00000000000001" as="geometry" />
          </mxCell>
        </object>
        <mxCell id="6Pm6-BvvKO2H3pWIC4Nk-33" value="" style="group" parent="1" vertex="1" connectable="0">
          <mxGeometry x="352" y="105" width="235" height="253" as="geometry" />
        </mxCell>
        <object placeholders="1" c4Name="" c4Type="ExecutionEnvironment" c4Application="VTEX" label="&lt;div style=&quot;text-align: left&quot;&gt;%c4Name%&lt;/div&gt;&lt;div style=&quot;text-align: left&quot;&gt;[%c4Application%]&lt;/div&gt;" id="6Pm6-BvvKO2H3pWIC4Nk-7">
          <mxCell style="rounded=1;whiteSpace=wrap;html=1;labelBackgroundColor=none;fillColor=#ffffff;fontColor=#000000;align=left;arcSize=5;strokeColor=#000000;verticalAlign=bottom;metaEdit=1;metaData={&quot;c4Type&quot;:{&quot;editable&quot;:false}};points=[[0.25,0,0],[0.5,0,0],[0.75,0,0],[1,0.25,0],[1,0.5,0],[1,0.75,0],[0.75,1,0],[0.5,1,0],[0.25,1,0],[0,0.75,0],[0,0.5,0],[0,0.25,0]];" parent="6Pm6-BvvKO2H3pWIC4Nk-33" vertex="1">
            <mxGeometry x="1" y="-1.0541666666666667" width="235" height="253" as="geometry" />
          </mxCell>
        </object>
        <object placeholders="1" c4Name="" c4Type="Component" c4Technology="technology" c4Description="Portal Admin" label="&lt;b&gt;%c4Name%&lt;/b&gt;&lt;div&gt;[%c4Type%: %c4Technology%]&lt;/div&gt;&lt;br&gt;&lt;div&gt;%c4Description%&lt;/div&gt;" id="6Pm6-BvvKO2H3pWIC4Nk-27">
          <mxCell style="rounded=1;whiteSpace=wrap;html=1;labelBackgroundColor=none;fillColor=#dae8fc;align=center;arcSize=10;strokeColor=#6c8ebf;metaEdit=1;metaData={&quot;c4Type&quot;:{&quot;editable&quot;:false}};points=[[0.25,0,0],[0.5,0,0],[0.75,0,0],[1,0.25,0],[1,0.5,0],[1,0.75,0],[0.75,1,0],[0.5,1,0],[0.25,1,0],[0,0.75,0],[0,0.5,0],[0,0.25,0]];gradientColor=#7ea6e0;" parent="6Pm6-BvvKO2H3pWIC4Nk-33" vertex="1">
            <mxGeometry x="12" y="9.4875" width="88" height="95.92916666666667" as="geometry" />
          </mxCell>
        </object>
        <object placeholders="1" c4Name="" c4Type="Component" c4Technology="technology" c4Description="Gateway Frete" label="&lt;b&gt;%c4Name%&lt;/b&gt;&lt;div&gt;[%c4Type%: %c4Technology%]&lt;/div&gt;&lt;br&gt;&lt;div&gt;%c4Description%&lt;/div&gt;" id="6Pm6-BvvKO2H3pWIC4Nk-28">
          <mxCell style="rounded=1;whiteSpace=wrap;html=1;labelBackgroundColor=none;fillColor=#dae8fc;align=center;arcSize=10;strokeColor=#6c8ebf;metaEdit=1;metaData={&quot;c4Type&quot;:{&quot;editable&quot;:false}};points=[[0.25,0,0],[0.5,0,0],[0.75,0,0],[1,0.25,0],[1,0.5,0],[1,0.75,0],[0.75,1,0],[0.5,1,0],[0.25,1,0],[0,0.75,0],[0,0.5,0],[0,0.25,0]];gradientColor=#7ea6e0;" parent="6Pm6-BvvKO2H3pWIC4Nk-33" vertex="1">
            <mxGeometry x="127" y="10.541666666666668" width="88" height="90.65833333333333" as="geometry" />
          </mxCell>
        </object>
        <object placeholders="1" c4Name="" c4Type="Component" c4Technology="technology" c4Description="Gateway Pagamento" label="&lt;b&gt;%c4Name%&lt;/b&gt;&lt;div&gt;[%c4Type%: %c4Technology%]&lt;/div&gt;&lt;br&gt;&lt;div&gt;%c4Description%&lt;/div&gt;" id="6Pm6-BvvKO2H3pWIC4Nk-30">
          <mxCell style="rounded=1;whiteSpace=wrap;html=1;labelBackgroundColor=none;fillColor=#dae8fc;align=center;arcSize=10;strokeColor=#6c8ebf;metaEdit=1;metaData={&quot;c4Type&quot;:{&quot;editable&quot;:false}};points=[[0.25,0,0],[0.5,0,0],[0.75,0,0],[1,0.25,0],[1,0.5,0],[1,0.75,0],[0.75,1,0],[0.5,1,0],[0.25,1,0],[0,0.75,0],[0,0.5,0],[0,0.25,0]];gradientColor=#7ea6e0;" parent="6Pm6-BvvKO2H3pWIC4Nk-33" vertex="1">
            <mxGeometry x="128" y="117.0125" width="88" height="85.3875" as="geometry" />
          </mxCell>
        </object>
        <object placeholders="1" c4Name="" c4Type="Component" c4Technology="technology" c4Description="Carrinho de Compra" label="&lt;b&gt;%c4Name%&lt;/b&gt;&lt;div&gt;[%c4Type%: %c4Technology%]&lt;/div&gt;&lt;br&gt;&lt;div&gt;%c4Description%&lt;/div&gt;" id="AY8ovK6SVIOUIteNGLBJ-6">
          <mxCell style="rounded=1;whiteSpace=wrap;html=1;labelBackgroundColor=none;fillColor=#dae8fc;align=center;arcSize=10;strokeColor=#6c8ebf;metaEdit=1;metaData={&quot;c4Type&quot;:{&quot;editable&quot;:false}};points=[[0.25,0,0],[0.5,0,0],[0.75,0,0],[1,0.25,0],[1,0.5,0],[1,0.75,0],[0.75,1,0],[0.5,1,0],[0.25,1,0],[0,0.75,0],[0,0.5,0],[0,0.25,0]];gradientColor=#7ea6e0;" vertex="1" parent="6Pm6-BvvKO2H3pWIC4Nk-33">
            <mxGeometry x="13" y="118.06666666666666" width="88" height="87.49583333333334" as="geometry" />
          </mxCell>
        </object>
        <mxCell id="6Pm6-BvvKO2H3pWIC4Nk-34" value="" style="group" parent="1" vertex="1" connectable="0">
          <mxGeometry x="794" y="102" width="235" height="240" as="geometry" />
        </mxCell>
        <object placeholders="1" c4Name="" c4Type="ExecutionEnvironment" c4Application="Aplicação" label="&lt;div style=&quot;text-align: left&quot;&gt;%c4Name%&lt;/div&gt;&lt;div style=&quot;text-align: left&quot;&gt;[%c4Application%]&lt;/div&gt;" id="6Pm6-BvvKO2H3pWIC4Nk-35">
          <mxCell style="rounded=1;whiteSpace=wrap;html=1;labelBackgroundColor=none;fillColor=#ffffff;fontColor=#000000;align=left;arcSize=5;strokeColor=#000000;verticalAlign=bottom;metaEdit=1;metaData={&quot;c4Type&quot;:{&quot;editable&quot;:false}};points=[[0.25,0,0],[0.5,0,0],[0.75,0,0],[1,0.25,0],[1,0.5,0],[1,0.75,0],[0.75,1,0],[0.5,1,0],[0.25,1,0],[0,0.75,0],[0,0.5,0],[0,0.25,0]];" parent="6Pm6-BvvKO2H3pWIC4Nk-34" vertex="1">
            <mxGeometry y="-4" width="235" height="244" as="geometry" />
          </mxCell>
        </object>
        <object placeholders="1" c4Name="" c4Type="Component" c4Technology="technology" c4Description="Orquestrador" label="&lt;b&gt;%c4Name%&lt;/b&gt;&lt;div&gt;[%c4Type%: %c4Technology%]&lt;/div&gt;&lt;br&gt;&lt;div&gt;%c4Description%&lt;/div&gt;" id="6Pm6-BvvKO2H3pWIC4Nk-36">
          <mxCell style="rounded=1;whiteSpace=wrap;html=1;labelBackgroundColor=none;fillColor=#dae8fc;align=center;arcSize=10;strokeColor=#6c8ebf;metaEdit=1;metaData={&quot;c4Type&quot;:{&quot;editable&quot;:false}};points=[[0.25,0,0],[0.5,0,0],[0.75,0,0],[1,0.25,0],[1,0.5,0],[1,0.75,0],[0.75,1,0],[0.5,1,0],[0.25,1,0],[0,0.75,0],[0,0.5,0],[0,0.25,0]];gradientColor=#7ea6e0;" parent="6Pm6-BvvKO2H3pWIC4Nk-34" vertex="1">
            <mxGeometry x="12" y="9" width="88" height="202" as="geometry" />
          </mxCell>
        </object>
        <object placeholders="1" c4Name="" c4Type="Component" c4Technology="technology" c4Description="Agendador de Pedido" label="&lt;b&gt;%c4Name%&lt;/b&gt;&lt;div&gt;[%c4Type%: %c4Technology%]&lt;/div&gt;&lt;br&gt;&lt;div&gt;%c4Description%&lt;/div&gt;" id="6Pm6-BvvKO2H3pWIC4Nk-37">
          <mxCell style="rounded=1;whiteSpace=wrap;html=1;labelBackgroundColor=none;fillColor=#dae8fc;align=center;arcSize=10;strokeColor=#6c8ebf;metaEdit=1;metaData={&quot;c4Type&quot;:{&quot;editable&quot;:false}};points=[[0.25,0,0],[0.5,0,0],[0.75,0,0],[1,0.25,0],[1,0.5,0],[1,0.75,0],[0.75,1,0],[0.5,1,0],[0.25,1,0],[0,0.75,0],[0,0.5,0],[0,0.25,0]];gradientColor=#7ea6e0;" parent="6Pm6-BvvKO2H3pWIC4Nk-34" vertex="1">
            <mxGeometry x="127" y="5" width="88" height="65" as="geometry" />
          </mxCell>
        </object>
        <object placeholders="1" c4Name="" c4Type="Component" c4Technology="technology" c4Description="Retentativa" label="&lt;b&gt;%c4Name%&lt;/b&gt;&lt;div&gt;[%c4Type%: %c4Technology%]&lt;/div&gt;&lt;br&gt;&lt;div&gt;%c4Description%&lt;/div&gt;" id="6Pm6-BvvKO2H3pWIC4Nk-43">
          <mxCell style="rounded=1;whiteSpace=wrap;html=1;labelBackgroundColor=none;fillColor=#dae8fc;align=center;arcSize=10;strokeColor=#6c8ebf;metaEdit=1;metaData={&quot;c4Type&quot;:{&quot;editable&quot;:false}};points=[[0.25,0,0],[0.5,0,0],[0.75,0,0],[1,0.25,0],[1,0.5,0],[1,0.75,0],[0.75,1,0],[0.5,1,0],[0.25,1,0],[0,0.75,0],[0,0.5,0],[0,0.25,0]];gradientColor=#7ea6e0;" parent="6Pm6-BvvKO2H3pWIC4Nk-34" vertex="1">
            <mxGeometry x="126" y="84" width="88" height="60" as="geometry" />
          </mxCell>
        </object>
        <object placeholders="1" c4Name="" c4Type="Component" c4Technology="technology" c4Description="Logs de Integração" label="&lt;b&gt;%c4Name%&lt;/b&gt;&lt;div&gt;[%c4Type%: %c4Technology%]&lt;/div&gt;&lt;br&gt;&lt;div&gt;%c4Description%&lt;/div&gt;" id="6Pm6-BvvKO2H3pWIC4Nk-44">
          <mxCell style="rounded=1;whiteSpace=wrap;html=1;labelBackgroundColor=none;fillColor=#dae8fc;align=center;arcSize=10;strokeColor=#6c8ebf;metaEdit=1;metaData={&quot;c4Type&quot;:{&quot;editable&quot;:false}};points=[[0.25,0,0],[0.5,0,0],[0.75,0,0],[1,0.25,0],[1,0.5,0],[1,0.75,0],[0.75,1,0],[0.5,1,0],[0.25,1,0],[0,0.75,0],[0,0.5,0],[0,0.25,0]];gradientColor=#7ea6e0;" parent="6Pm6-BvvKO2H3pWIC4Nk-34" vertex="1">
            <mxGeometry x="127" y="155" width="88" height="76" as="geometry" />
          </mxCell>
        </object>
        <object placeholders="1" c4Type="Relationship" c4Technology="" c4Description="Usa" label="&lt;div style=&quot;text-align: left&quot;&gt;&lt;div style=&quot;text-align: center&quot;&gt;&lt;b&gt;%c4Description%&lt;/b&gt;&lt;/div&gt;&lt;div style=&quot;text-align: center&quot;&gt;[%c4Technology%]&lt;/div&gt;&lt;/div&gt;" id="6Pm6-BvvKO2H3pWIC4Nk-45">
          <mxCell style="edgeStyle=none;rounded=0;html=1;jettySize=auto;orthogonalLoop=1;strokeColor=#707070;strokeWidth=2;fontColor=#707070;jumpStyle=none;dashed=1;metaEdit=1;metaData={&quot;c4Type&quot;:{&quot;editable&quot;:false}};entryX=0.5;entryY=1;entryDx=0;entryDy=0;entryPerimeter=0;exitX=0.5;exitY=0;exitDx=0;exitDy=0;exitPerimeter=0;" parent="1" source="6Pm6-BvvKO2H3pWIC4Nk-26" target="6Pm6-BvvKO2H3pWIC4Nk-7" edge="1">
            <mxGeometry x="-0.2157" y="10" width="160" relative="1" as="geometry">
              <mxPoint x="702" y="265" as="sourcePoint" />
              <mxPoint x="733" y="265" as="targetPoint" />
              <mxPoint as="offset" />
            </mxGeometry>
          </mxCell>
        </object>
        <object placeholders="1" c4Type="Relationship" c4Technology="" c4Description="Consome" label="&lt;div style=&quot;text-align: left&quot;&gt;&lt;div style=&quot;text-align: center&quot;&gt;&lt;b&gt;%c4Description%&lt;/b&gt;&lt;/div&gt;&lt;div style=&quot;text-align: center&quot;&gt;[%c4Technology%]&lt;/div&gt;&lt;/div&gt;" id="6Pm6-BvvKO2H3pWIC4Nk-48">
          <mxCell style="edgeStyle=none;rounded=0;html=1;jettySize=auto;orthogonalLoop=1;strokeColor=#707070;strokeWidth=2;fontColor=#707070;jumpStyle=none;dashed=1;metaEdit=1;metaData={&quot;c4Type&quot;:{&quot;editable&quot;:false}};exitX=1;exitY=0.5;exitDx=0;exitDy=0;exitPerimeter=0;" parent="1" source="6Pm6-BvvKO2H3pWIC4Nk-26" edge="1">
            <mxGeometry x="-0.2086" y="16" width="160" relative="1" as="geometry">
              <mxPoint x="626.9971258907365" y="327" as="sourcePoint" />
              <mxPoint x="829" y="448" as="targetPoint" />
              <mxPoint as="offset" />
              <Array as="points" />
            </mxGeometry>
          </mxCell>
        </object>
        <object placeholders="1" c4Type="Relationship" c4Technology="" c4Description="Consome" label="&lt;div style=&quot;text-align: left&quot;&gt;&lt;div style=&quot;text-align: center&quot;&gt;&lt;b&gt;%c4Description%&lt;/b&gt;&lt;/div&gt;&lt;div style=&quot;text-align: center&quot;&gt;[%c4Technology%]&lt;/div&gt;&lt;/div&gt;" id="6Pm6-BvvKO2H3pWIC4Nk-49">
          <mxCell style="edgeStyle=none;rounded=0;html=1;jettySize=auto;orthogonalLoop=1;strokeColor=#707070;strokeWidth=2;fontColor=#707070;jumpStyle=none;dashed=1;metaEdit=1;metaData={&quot;c4Type&quot;:{&quot;editable&quot;:false}};exitX=1;exitY=0.25;exitDx=0;exitDy=0;exitPerimeter=0;entryX=0.5;entryY=0;entryDx=0;entryDy=0;entryPerimeter=0;" parent="1" source="6Pm6-BvvKO2H3pWIC4Nk-32" edge="1">
            <mxGeometry x="-0.2445" y="-12" width="160" relative="1" as="geometry">
              <mxPoint x="1020" y="449" as="sourcePoint" />
              <mxPoint x="1506.9999999999995" y="468" as="targetPoint" />
              <mxPoint as="offset" />
              <Array as="points">
                <mxPoint x="1507" y="406" />
              </Array>
            </mxGeometry>
          </mxCell>
        </object>
        <mxCell id="6Pm6-BvvKO2H3pWIC4Nk-65" value="" style="group" parent="1" vertex="1" connectable="0">
          <mxGeometry x="358" y="703" width="235" height="240" as="geometry" />
        </mxCell>
        <object placeholders="1" c4Name="" c4Type="ExecutionEnvironment" c4Application="Aplicação" label="&lt;div style=&quot;text-align: left&quot;&gt;%c4Name%&lt;/div&gt;&lt;div style=&quot;text-align: left&quot;&gt;[%c4Application%]&lt;/div&gt;" id="6Pm6-BvvKO2H3pWIC4Nk-66">
          <mxCell style="rounded=1;whiteSpace=wrap;html=1;labelBackgroundColor=none;fillColor=#ffffff;fontColor=#000000;align=left;arcSize=5;strokeColor=#000000;verticalAlign=bottom;metaEdit=1;metaData={&quot;c4Type&quot;:{&quot;editable&quot;:false}};points=[[0.25,0,0],[0.5,0,0],[0.75,0,0],[1,0.25,0],[1,0.5,0],[1,0.75,0],[0.75,1,0],[0.5,1,0],[0.25,1,0],[0,0.75,0],[0,0.5,0],[0,0.25,0]];" parent="6Pm6-BvvKO2H3pWIC4Nk-65" vertex="1">
            <mxGeometry x="2" width="235" height="240" as="geometry" />
          </mxCell>
        </object>
        <object placeholders="1" c4Name="" c4Type="Component" c4Technology="technology" c4Description="Pedidos" label="&lt;b&gt;%c4Name%&lt;/b&gt;&lt;div&gt;[%c4Type%: %c4Technology%]&lt;/div&gt;&lt;br&gt;&lt;div&gt;%c4Description%&lt;/div&gt;" id="6Pm6-BvvKO2H3pWIC4Nk-67">
          <mxCell style="rounded=1;whiteSpace=wrap;html=1;labelBackgroundColor=none;fillColor=#dae8fc;align=center;arcSize=10;strokeColor=#6c8ebf;metaEdit=1;metaData={&quot;c4Type&quot;:{&quot;editable&quot;:false}};points=[[0.25,0,0],[0.5,0,0],[0.75,0,0],[1,0.25,0],[1,0.5,0],[1,0.75,0],[0.75,1,0],[0.5,1,0],[0.25,1,0],[0,0.75,0],[0,0.5,0],[0,0.25,0]];gradientColor=#7ea6e0;" parent="6Pm6-BvvKO2H3pWIC4Nk-65" vertex="1">
            <mxGeometry x="12" y="9" width="88" height="98" as="geometry" />
          </mxCell>
        </object>
        <object placeholders="1" c4Name="" c4Type="Component" c4Technology="technology" c4Description="Produto" label="&lt;b&gt;%c4Name%&lt;/b&gt;&lt;div&gt;[%c4Type%: %c4Technology%]&lt;/div&gt;&lt;br&gt;&lt;div&gt;%c4Description%&lt;/div&gt;" id="6Pm6-BvvKO2H3pWIC4Nk-68">
          <mxCell style="rounded=1;whiteSpace=wrap;html=1;labelBackgroundColor=none;fillColor=#dae8fc;align=center;arcSize=10;strokeColor=#6c8ebf;metaEdit=1;metaData={&quot;c4Type&quot;:{&quot;editable&quot;:false}};points=[[0.25,0,0],[0.5,0,0],[0.75,0,0],[1,0.25,0],[1,0.5,0],[1,0.75,0],[0.75,1,0],[0.5,1,0],[0.25,1,0],[0,0.75,0],[0,0.5,0],[0,0.25,0]];gradientColor=#7ea6e0;" parent="6Pm6-BvvKO2H3pWIC4Nk-65" vertex="1">
            <mxGeometry x="127" y="10" width="88" height="96" as="geometry" />
          </mxCell>
        </object>
        <object placeholders="1" c4Name="" c4Type="Component" c4Technology="technology" c4Description="Faturamento" label="&lt;b&gt;%c4Name%&lt;/b&gt;&lt;div&gt;[%c4Type%: %c4Technology%]&lt;/div&gt;&lt;br&gt;&lt;div&gt;%c4Description%&lt;/div&gt;" id="6Pm6-BvvKO2H3pWIC4Nk-69">
          <mxCell style="rounded=1;whiteSpace=wrap;html=1;labelBackgroundColor=none;fillColor=#dae8fc;align=center;arcSize=10;strokeColor=#6c8ebf;metaEdit=1;metaData={&quot;c4Type&quot;:{&quot;editable&quot;:false}};points=[[0.25,0,0],[0.5,0,0],[0.75,0,0],[1,0.25,0],[1,0.5,0],[1,0.75,0],[0.75,1,0],[0.5,1,0],[0.25,1,0],[0,0.75,0],[0,0.5,0],[0,0.25,0]];gradientColor=#7ea6e0;" parent="6Pm6-BvvKO2H3pWIC4Nk-65" vertex="1">
            <mxGeometry x="129" y="124" width="88" height="86" as="geometry" />
          </mxCell>
        </object>
        <object placeholders="1" c4Name="" c4Type="Component" c4Technology="technology" c4Description="Cliente" label="&lt;b&gt;%c4Name%&lt;/b&gt;&lt;div&gt;[%c4Type%: %c4Technology%]&lt;/div&gt;&lt;br&gt;&lt;div&gt;%c4Description%&lt;/div&gt;" id="8vghSh-dl1GqUzbi_Etn-1">
          <mxCell style="rounded=1;whiteSpace=wrap;html=1;labelBackgroundColor=none;fillColor=#dae8fc;align=center;arcSize=10;strokeColor=#6c8ebf;metaEdit=1;metaData={&quot;c4Type&quot;:{&quot;editable&quot;:false}};points=[[0.25,0,0],[0.5,0,0],[0.75,0,0],[1,0.25,0],[1,0.5,0],[1,0.75,0],[0.75,1,0],[0.5,1,0],[0.25,1,0],[0,0.75,0],[0,0.5,0],[0,0.25,0]];gradientColor=#7ea6e0;" vertex="1" parent="6Pm6-BvvKO2H3pWIC4Nk-65">
            <mxGeometry x="11" y="120" width="88" height="86" as="geometry" />
          </mxCell>
        </object>
        <object placeholders="1" c4Name="" c4Type="Component" c4Technology="technology" c4Description="Backoffice" label="&lt;b&gt;%c4Name%&lt;/b&gt;&lt;div&gt;[%c4Type%: %c4Technology%]&lt;/div&gt;&lt;br&gt;&lt;div&gt;%c4Description%&lt;/div&gt;" link="data:page/id,z-gVikQ5z3uHVlFhHRUU" id="6Pm6-BvvKO2H3pWIC4Nk-76">
          <mxCell style="rounded=1;whiteSpace=wrap;html=1;labelBackgroundColor=none;fillColor=#dae8fc;align=center;arcSize=10;strokeColor=#6c8ebf;metaEdit=1;metaData={&quot;c4Type&quot;:{&quot;editable&quot;:false}};points=[[0.25,0,0],[0.5,0,0],[0.75,0,0],[1,0.25,0],[1,0.5,0],[1,0.75,0],[0.75,1,0],[0.5,1,0],[0.25,1,0],[0,0.75,0],[0,0.5,0],[0,0.25,0]];gradientColor=#7ea6e0;" parent="1" vertex="1">
            <mxGeometry x="393" y="539" width="160" height="110.00000000000001" as="geometry" />
          </mxCell>
        </object>
        <object placeholders="1" c4Type="Relationship" c4Technology="" c4Description="Conecta" label="&lt;div style=&quot;text-align: left&quot;&gt;&lt;div style=&quot;text-align: center&quot;&gt;&lt;b&gt;%c4Description%&lt;/b&gt;&lt;/div&gt;&lt;div style=&quot;text-align: center&quot;&gt;[%c4Technology%]&lt;/div&gt;&lt;/div&gt;" id="6Pm6-BvvKO2H3pWIC4Nk-78">
          <mxCell style="edgeStyle=none;rounded=0;html=1;jettySize=auto;orthogonalLoop=1;strokeColor=#707070;strokeWidth=2;fontColor=#707070;jumpStyle=none;dashed=1;metaEdit=1;metaData={&quot;c4Type&quot;:{&quot;editable&quot;:false}};exitX=1;exitY=0.5;exitDx=0;exitDy=0;exitPerimeter=0;entryX=0;entryY=0.5;entryDx=0;entryDy=0;entryPerimeter=0;" parent="1" edge="1" target="sW8k7WHvXA_NU7-8nzhB-1">
            <mxGeometry x="-0.2157" y="10" width="160" relative="1" as="geometry">
              <mxPoint x="554" y="588" as="sourcePoint" />
              <mxPoint x="1502" y="793" as="targetPoint" />
              <mxPoint as="offset" />
              <Array as="points">
                <mxPoint x="1169" y="592" />
                <mxPoint x="1173" y="744" />
              </Array>
            </mxGeometry>
          </mxCell>
        </object>
        <object placeholders="1" c4Type="Relationship" c4Technology="" c4Description="Usa" label="&lt;div style=&quot;text-align: left&quot;&gt;&lt;div style=&quot;text-align: center&quot;&gt;&lt;b&gt;%c4Description%&lt;/b&gt;&lt;/div&gt;&lt;div style=&quot;text-align: center&quot;&gt;[%c4Technology%]&lt;/div&gt;&lt;/div&gt;" id="6Pm6-BvvKO2H3pWIC4Nk-84">
          <mxCell style="edgeStyle=none;rounded=0;html=1;jettySize=auto;orthogonalLoop=1;strokeColor=#707070;strokeWidth=2;fontColor=#707070;jumpStyle=none;dashed=1;metaEdit=1;metaData={&quot;c4Type&quot;:{&quot;editable&quot;:false}};entryX=0.5;entryY=1;entryDx=0;entryDy=0;entryPerimeter=0;exitX=0.5;exitY=0;exitDx=0;exitDy=0;exitPerimeter=0;" parent="1" edge="1">
            <mxGeometry x="-0.2157" y="10" width="160" relative="1" as="geometry">
              <mxPoint x="475" y="699" as="sourcePoint" />
              <mxPoint x="475.5" y="651" as="targetPoint" />
              <mxPoint as="offset" />
            </mxGeometry>
          </mxCell>
        </object>
        <object placeholders="1" c4Type="Relationship" c4Technology="" c4Description="Opera" label="&lt;div style=&quot;text-align: left&quot;&gt;&lt;div style=&quot;text-align: center&quot;&gt;&lt;b&gt;%c4Description%&lt;/b&gt;&lt;/div&gt;&lt;div style=&quot;text-align: center&quot;&gt;[%c4Technology%]&lt;/div&gt;&lt;/div&gt;" id="6Pm6-BvvKO2H3pWIC4Nk-86">
          <mxCell style="edgeStyle=none;rounded=0;html=1;jettySize=auto;orthogonalLoop=1;strokeColor=#707070;strokeWidth=2;fontColor=#707070;jumpStyle=none;dashed=1;metaEdit=1;metaData={&quot;c4Type&quot;:{&quot;editable&quot;:false}};entryX=0;entryY=0.25;entryDx=0;entryDy=0;entryPerimeter=0;" parent="1" target="6Pm6-BvvKO2H3pWIC4Nk-76" edge="1">
            <mxGeometry x="-0.2157" y="10" width="160" relative="1" as="geometry">
              <mxPoint x="180.99712589073647" y="602" as="sourcePoint" />
              <mxPoint x="382.7500000000002" y="728.4499999999998" as="targetPoint" />
              <mxPoint as="offset" />
              <Array as="points">
                <mxPoint x="181" y="567" />
              </Array>
            </mxGeometry>
          </mxCell>
        </object>
        <object placeholders="1" c4Name="SOAP XML" c4Type="Component" c4Technology="technology" c4Description="Webservice" label="&lt;b&gt;%c4Name%&lt;/b&gt;&lt;div&gt;[%c4Type%: %c4Technology%]&lt;/div&gt;&lt;br&gt;&lt;div&gt;%c4Description%&lt;/div&gt;" id="iDf1yMDSKFGEPbIzJbsE-3">
          <mxCell style="rounded=1;whiteSpace=wrap;html=1;labelBackgroundColor=none;fillColor=#dae8fc;align=center;arcSize=10;strokeColor=#6c8ebf;metaEdit=1;metaData={&quot;c4Type&quot;:{&quot;editable&quot;:false}};points=[[0.25,0,0],[0.5,0,0],[0.75,0,0],[1,0.25,0],[1,0.5,0],[1,0.75,0],[0.75,1,0],[0.5,1,0],[0.25,1,0],[0,0.75,0],[0,0.5,0],[0,0.25,0]];gradientColor=#7ea6e0;" parent="1" vertex="1">
            <mxGeometry x="1419" y="468" width="160" height="110.00000000000001" as="geometry" />
          </mxCell>
        </object>
        <object placeholders="1" c4Name="Armazenamento" c4Type="Component" c4Technology="technology" c4Description="Data Base" label="&lt;b&gt;%c4Name%&lt;/b&gt;&lt;div&gt;[%c4Type%: %c4Technology%]&lt;/div&gt;&lt;br&gt;&lt;div&gt;%c4Description%&lt;/div&gt;" id="sW8k7WHvXA_NU7-8nzhB-1">
          <mxCell style="rounded=1;whiteSpace=wrap;html=1;labelBackgroundColor=none;fillColor=#dae8fc;align=center;arcSize=10;strokeColor=#6c8ebf;metaEdit=1;metaData={&quot;c4Type&quot;:{&quot;editable&quot;:false}};points=[[0.25,0,0],[0.5,0,0],[0.75,0,0],[1,0.25,0],[1,0.5,0],[1,0.75,0],[0.75,1,0],[0.5,1,0],[0.25,1,0],[0,0.75,0],[0,0.5,0],[0,0.25,0]];gradientColor=#7ea6e0;" vertex="1" parent="1">
            <mxGeometry x="1421" y="689" width="160" height="110.00000000000001" as="geometry" />
          </mxCell>
        </object>
        <mxCell id="sW8k7WHvXA_NU7-8nzhB-2" value="" style="endArrow=classic;html=1;rounded=0;entryX=0.5;entryY=0;entryDx=0;entryDy=0;entryPerimeter=0;exitX=0.5;exitY=1;exitDx=0;exitDy=0;exitPerimeter=0;" edge="1" parent="1" source="iDf1yMDSKFGEPbIzJbsE-3" target="sW8k7WHvXA_NU7-8nzhB-1">
          <mxGeometry width="50" height="50" relative="1" as="geometry">
            <mxPoint x="1122" y="739" as="sourcePoint" />
            <mxPoint x="1172" y="689" as="targetPoint" />
          </mxGeometry>
        </mxCell>
        <mxCell id="ys6O7FKhxUHlPK0xsX8V-1" value="&lt;h1 style=&quot;margin-top: 0px;&quot;&gt;Dores&lt;/h1&gt;&lt;div&gt;- Gargalo de Pedidos&lt;/div&gt;&lt;div&gt;- Limitação de 10 mil pedidos/dia&amp;nbsp;&lt;/div&gt;&lt;div&gt;&lt;br&gt;&lt;/div&gt;" style="text;html=1;whiteSpace=wrap;overflow=hidden;rounded=0;" vertex="1" parent="1">
          <mxGeometry x="1778" y="365" width="232" height="120" as="geometry" />
        </mxCell>
      </root>
    </mxGraphModel>
  </diagram>
  <diagram name="Componente" id="z-gVikQ5z3uHVlFhHRUU">
    <mxGraphModel dx="2206" dy="1135" grid="0" gridSize="10" guides="0" tooltips="1" connect="1" arrows="1" fold="1" page="1" pageScale="1" pageWidth="827" pageHeight="1169" math="0" shadow="0">
      <root>
        <mxCell id="nEGDNwXGdrJV5zD8ETKe-0" />
        <mxCell id="nEGDNwXGdrJV5zD8ETKe-1" parent="nEGDNwXGdrJV5zD8ETKe-0" />
        <object placeholders="1" c4Name="Client Envirolment" c4Type="DeploymentNode" c4OperationSystem="" c4ScalingFactor="" label="&lt;div style=&quot;text-align: left&quot;&gt;%c4Name%&lt;/div&gt;&lt;div style=&quot;text-align: left&quot;&gt;[%c4OperationSystem%]&lt;/div&gt;&lt;div style=&quot;text-align: right&quot;&gt;%c4ScalingFactor%&lt;/div&gt;" id="xIAbxvtqpwer93HJdYBo-1">
          <mxCell style="rounded=1;whiteSpace=wrap;html=1;labelBackgroundColor=none;fillColor=#ffffff;fontColor=#000000;align=left;arcSize=5;strokeColor=#000000;verticalAlign=bottom;metaEdit=1;metaData={&quot;c4Type&quot;:{&quot;editable&quot;:false}};points=[[0.25,0,0],[0.5,0,0],[0.75,0,0],[1,0.25,0],[1,0.5,0],[1,0.75,0],[0.75,1,0],[0.5,1,0],[0.25,1,0],[0,0.75,0],[0,0.5,0],[0,0.25,0]];" parent="nEGDNwXGdrJV5zD8ETKe-1" vertex="1">
            <mxGeometry x="46" y="71" width="1300" height="945" as="geometry" />
          </mxCell>
        </object>
        <object placeholders="1" c4Name="2Lig" c4Type="DeploymentNode" c4OperationSystem="integrador" c4ScalingFactor="SAAS" label="&lt;div style=&quot;text-align: left&quot;&gt;%c4Name%&lt;/div&gt;&lt;div style=&quot;text-align: left&quot;&gt;[%c4OperationSystem%]&lt;/div&gt;&lt;div style=&quot;text-align: right&quot;&gt;%c4ScalingFactor%&lt;/div&gt;" id="z5oHLZ9e8A7TyZ4ddOKZ-0">
          <mxCell style="rounded=1;whiteSpace=wrap;html=1;labelBackgroundColor=none;fillColor=#ffffff;fontColor=#000000;align=left;arcSize=5;strokeColor=#000000;verticalAlign=bottom;metaEdit=1;metaData={&quot;c4Type&quot;:{&quot;editable&quot;:false}};points=[[0.25,0,0],[0.5,0,0],[0.75,0,0],[1,0.25,0],[1,0.5,0],[1,0.75,0],[0.75,1,0],[0.5,1,0],[0.25,1,0],[0,0.75,0],[0,0.5,0],[0,0.25,0]];" vertex="1" parent="nEGDNwXGdrJV5zD8ETKe-1">
            <mxGeometry x="696" y="97" width="568" height="414" as="geometry" />
          </mxCell>
        </object>
        <object placeholders="1" c4Name="Armazenamento" c4Type="DeploymentNode" c4OperationSystem="API" c4ScalingFactor="SAAS" label="&lt;div style=&quot;text-align: left&quot;&gt;%c4Name%&lt;/div&gt;&lt;div style=&quot;text-align: left&quot;&gt;[%c4OperationSystem%]&lt;/div&gt;&lt;div style=&quot;text-align: right&quot;&gt;%c4ScalingFactor%&lt;/div&gt;" id="xIAbxvtqpwer93HJdYBo-0">
          <mxCell style="rounded=1;whiteSpace=wrap;html=1;labelBackgroundColor=none;fillColor=#ffffff;fontColor=#000000;align=left;arcSize=5;strokeColor=#000000;verticalAlign=bottom;metaEdit=1;metaData={&quot;c4Type&quot;:{&quot;editable&quot;:false}};points=[[0.25,0,0],[0.5,0,0],[0.75,0,0],[1,0.25,0],[1,0.5,0],[1,0.75,0],[0.75,1,0],[0.5,1,0],[0.25,1,0],[0,0.75,0],[0,0.5,0],[0,0.25,0]];" parent="nEGDNwXGdrJV5zD8ETKe-1" vertex="1">
            <mxGeometry x="1387" y="74" width="267" height="949" as="geometry" />
          </mxCell>
        </object>
        <object placeholders="1" c4Name="ERP" c4Type="DeploymentNode" c4OperationSystem="kpl" c4ScalingFactor="SAAS" label="&lt;div style=&quot;text-align: left&quot;&gt;%c4Name%&lt;/div&gt;&lt;div style=&quot;text-align: left&quot;&gt;[%c4OperationSystem%]&lt;/div&gt;&lt;div style=&quot;text-align: right&quot;&gt;%c4ScalingFactor%&lt;/div&gt;" id="xIAbxvtqpwer93HJdYBo-2">
          <mxCell style="rounded=1;whiteSpace=wrap;html=1;labelBackgroundColor=none;fillColor=#ffffff;fontColor=#000000;align=left;arcSize=5;strokeColor=#000000;verticalAlign=bottom;metaEdit=1;metaData={&quot;c4Type&quot;:{&quot;editable&quot;:false}};points=[[0.25,0,0],[0.5,0,0],[0.75,0,0],[1,0.25,0],[1,0.5,0],[1,0.75,0],[0.75,1,0],[0.5,1,0],[0.25,1,0],[0,0.75,0],[0,0.5,0],[0,0.25,0]];" parent="nEGDNwXGdrJV5zD8ETKe-1" vertex="1">
            <mxGeometry x="299" y="517" width="1025" height="448" as="geometry" />
          </mxCell>
        </object>
        <object placeholders="1" c4Name="VTEX" c4Type="DeploymentNode" c4OperationSystem="Ecommerce" c4ScalingFactor="SAAS" label="&lt;div style=&quot;text-align: left&quot;&gt;%c4Name%&lt;/div&gt;&lt;div style=&quot;text-align: left&quot;&gt;[%c4OperationSystem%]&lt;/div&gt;&lt;div style=&quot;text-align: right&quot;&gt;%c4ScalingFactor%&lt;/div&gt;" id="xIAbxvtqpwer93HJdYBo-3">
          <mxCell style="rounded=1;whiteSpace=wrap;html=1;labelBackgroundColor=none;fillColor=#ffffff;fontColor=#000000;align=left;arcSize=5;strokeColor=#000000;verticalAlign=bottom;metaEdit=1;metaData={&quot;c4Type&quot;:{&quot;editable&quot;:false}};points=[[0.25,0,0],[0.5,0,0],[0.75,0,0],[1,0.25,0],[1,0.5,0],[1,0.75,0],[0.75,1,0],[0.5,1,0],[0.25,1,0],[0,0.75,0],[0,0.5,0],[0,0.25,0]];" parent="nEGDNwXGdrJV5zD8ETKe-1" vertex="1">
            <mxGeometry x="71" y="95" width="568" height="414" as="geometry" />
          </mxCell>
        </object>
        <object c4Name="Cliente E-commerce" c4Type="Person" c4Description="Compra pelo Site" label="&lt;b&gt;%c4Name%&lt;/b&gt;&lt;div&gt;[%c4Type%]&lt;/div&gt;&lt;br&gt;&lt;div&gt;%c4Description%&lt;/div&gt;" placeholders="1" id="xIAbxvtqpwer93HJdYBo-4">
          <mxCell style="html=1;dashed=0;whitespace=wrap;fillColor=#dae8fc;strokeColor=#6c8ebf;shape=mxgraph.c4.person;align=center;metaEdit=1;points=[[0.5,0,0],[1,0.5,0],[1,0.75,0],[0.75,1,0],[0.5,1,0],[0.25,1,0],[0,0.75,0],[0,0.5,0]];metaData={&quot;c4Type&quot;:{&quot;editable&quot;:false}};gradientColor=#7ea6e0;" parent="nEGDNwXGdrJV5zD8ETKe-1" vertex="1">
            <mxGeometry x="105" y="163" width="168" height="169" as="geometry" />
          </mxCell>
        </object>
        <object c4Name="Operação" c4Type="Person" c4Description="Suporte Operação" label="&lt;b&gt;%c4Name%&lt;/b&gt;&lt;div&gt;[%c4Type%]&lt;/div&gt;&lt;br&gt;&lt;div&gt;%c4Description%&lt;/div&gt;" placeholders="1" id="xIAbxvtqpwer93HJdYBo-5">
          <mxCell style="html=1;dashed=0;whitespace=wrap;fillColor=#f5f5f5;strokeColor=#666666;shape=mxgraph.c4.person;align=center;metaEdit=1;points=[[0.5,0,0],[1,0.5,0],[1,0.75,0],[0.75,1,0],[0.5,1,0],[0.25,1,0],[0,0.75,0],[0,0.5,0]];metaData={&quot;c4Type&quot;:{&quot;editable&quot;:false}};gradientColor=#b3b3b3;" parent="nEGDNwXGdrJV5zD8ETKe-1" vertex="1">
            <mxGeometry x="99" y="603" width="168" height="169" as="geometry" />
          </mxCell>
        </object>
        <object placeholders="1" c4Type="Relationship" c4Technology="" c4Description="Usa" label="&lt;div style=&quot;text-align: left&quot;&gt;&lt;div style=&quot;text-align: center&quot;&gt;&lt;b&gt;%c4Description%&lt;/b&gt;&lt;/div&gt;&lt;div style=&quot;text-align: center&quot;&gt;[%c4Technology%]&lt;/div&gt;&lt;/div&gt;" id="xIAbxvtqpwer93HJdYBo-6">
          <mxCell style="edgeStyle=none;rounded=0;html=1;jettySize=auto;orthogonalLoop=1;strokeColor=#707070;strokeWidth=2;fontColor=#707070;jumpStyle=none;dashed=1;metaEdit=1;metaData={&quot;c4Type&quot;:{&quot;editable&quot;:false}};entryX=0.5;entryY=1;entryDx=0;entryDy=0;entryPerimeter=0;exitX=0.5;exitY=0;exitDx=0;exitDy=0;exitPerimeter=0;" parent="nEGDNwXGdrJV5zD8ETKe-1" target="xIAbxvtqpwer93HJdYBo-16" edge="1" source="I6UD2byCxRfw3vTUhLp8-7">
            <mxGeometry x="-0.2157" y="10" width="160" relative="1" as="geometry">
              <mxPoint x="912" y="384" as="sourcePoint" />
              <mxPoint x="952" y="384" as="targetPoint" />
              <mxPoint as="offset" />
            </mxGeometry>
          </mxCell>
        </object>
        <object placeholders="1" c4Type="Relationship" c4Technology="" c4Description="Acessa" label="&lt;div style=&quot;text-align: left&quot;&gt;&lt;div style=&quot;text-align: center&quot;&gt;&lt;b&gt;%c4Description%&lt;/b&gt;&lt;/div&gt;&lt;div style=&quot;text-align: center&quot;&gt;[%c4Technology%]&lt;/div&gt;&lt;/div&gt;" id="xIAbxvtqpwer93HJdYBo-7">
          <mxCell style="edgeStyle=none;rounded=0;html=1;jettySize=auto;orthogonalLoop=1;strokeColor=#707070;strokeWidth=2;fontColor=#707070;jumpStyle=none;dashed=1;metaEdit=1;metaData={&quot;c4Type&quot;:{&quot;editable&quot;:false}};entryX=0.011;entryY=0.595;entryDx=0;entryDy=0;entryPerimeter=0;" parent="nEGDNwXGdrJV5zD8ETKe-1" source="xIAbxvtqpwer93HJdYBo-4" edge="1">
            <mxGeometry x="-0.2157" y="10" width="160" relative="1" as="geometry">
              <mxPoint x="271.99800000000005" y="257.0280000000001" as="sourcePoint" />
              <mxPoint x="392.7600000000002" y="458.4499999999998" as="targetPoint" />
              <mxPoint as="offset" />
              <Array as="points">
                <mxPoint x="194" y="458" />
              </Array>
            </mxGeometry>
          </mxCell>
        </object>
        <mxCell id="xIAbxvtqpwer93HJdYBo-10" value="" style="group" parent="nEGDNwXGdrJV5zD8ETKe-1" vertex="1" connectable="0">
          <mxGeometry x="352" y="105" width="235" height="240" as="geometry" />
        </mxCell>
        <object placeholders="1" c4Name="" c4Type="ExecutionEnvironment" c4Application="Aplicação" label="&lt;div style=&quot;text-align: left&quot;&gt;%c4Name%&lt;/div&gt;&lt;div style=&quot;text-align: left&quot;&gt;[%c4Application%]&lt;/div&gt;" id="xIAbxvtqpwer93HJdYBo-11">
          <mxCell style="rounded=1;whiteSpace=wrap;html=1;labelBackgroundColor=none;fillColor=#ffffff;fontColor=#000000;align=left;arcSize=5;strokeColor=#000000;verticalAlign=bottom;metaEdit=1;metaData={&quot;c4Type&quot;:{&quot;editable&quot;:false}};points=[[0.25,0,0],[0.5,0,0],[0.75,0,0],[1,0.25,0],[1,0.5,0],[1,0.75,0],[0.75,1,0],[0.5,1,0],[0.25,1,0],[0,0.75,0],[0,0.5,0],[0,0.25,0]];" parent="xIAbxvtqpwer93HJdYBo-10" vertex="1">
            <mxGeometry x="2" width="235" height="240" as="geometry" />
          </mxCell>
        </object>
        <object placeholders="1" c4Name="Backend" c4Type="Container" c4Technology="C#" c4Description="Administra Pedido" label="&lt;b&gt;%c4Name%&lt;/b&gt;&lt;div&gt;[%c4Type%: %c4Technology%]&lt;/div&gt;&lt;br&gt;&lt;div&gt;%c4Description%&lt;/div&gt;" id="xIAbxvtqpwer93HJdYBo-44">
          <mxCell style="rounded=1;whiteSpace=wrap;html=1;labelBackgroundColor=none;fillColor=#85BBF0;fontColor=#ffffff;align=center;arcSize=10;strokeColor=#78A8D8;metaEdit=1;metaData={&quot;c4Type&quot;:{&quot;editable&quot;:false}};points=[[0.25,0,0],[0.5,0,0],[0.75,0,0],[1,0.25,0],[1,0.5,0],[1,0.75,0],[0.75,1,0],[0.5,1,0],[0.25,1,0],[0,0.75,0],[0,0.5,0],[0,0.25,0]];" parent="xIAbxvtqpwer93HJdYBo-10" vertex="1">
            <mxGeometry x="9" y="9" width="96" height="86" as="geometry" />
          </mxCell>
        </object>
        <object placeholders="1" c4Name="Frete" c4Type="Container" c4Technology="Nodejs" c4Description="Calcula Frete" label="&lt;b&gt;%c4Name%&lt;/b&gt;&lt;div&gt;[%c4Type%: %c4Technology%]&lt;/div&gt;&lt;br&gt;&lt;div&gt;%c4Description%&lt;/div&gt;" id="xIAbxvtqpwer93HJdYBo-48">
          <mxCell style="rounded=1;whiteSpace=wrap;html=1;labelBackgroundColor=none;fillColor=#85BBF0;fontColor=#ffffff;align=center;arcSize=10;strokeColor=#78A8D8;metaEdit=1;metaData={&quot;c4Type&quot;:{&quot;editable&quot;:false}};points=[[0.25,0,0],[0.5,0,0],[0.75,0,0],[1,0.25,0],[1,0.5,0],[1,0.75,0],[0.75,1,0],[0.5,1,0],[0.25,1,0],[0,0.75,0],[0,0.5,0],[0,0.25,0]];" parent="xIAbxvtqpwer93HJdYBo-10" vertex="1">
            <mxGeometry x="126" y="11" width="96" height="83" as="geometry" />
          </mxCell>
        </object>
        <object placeholders="1" c4Name="Gateway" c4Type="Container" c4Technology="C# , Mongo" c4Description="Efetua Pagamento" label="&lt;b&gt;%c4Name%&lt;/b&gt;&lt;div&gt;[%c4Type%: %c4Technology%]&lt;/div&gt;&lt;br&gt;&lt;div&gt;%c4Description%&lt;/div&gt;" id="I6UD2byCxRfw3vTUhLp8-0">
          <mxCell style="rounded=1;whiteSpace=wrap;html=1;labelBackgroundColor=none;fillColor=#85BBF0;fontColor=#ffffff;align=center;arcSize=10;strokeColor=#78A8D8;metaEdit=1;metaData={&quot;c4Type&quot;:{&quot;editable&quot;:false}};points=[[0.25,0,0],[0.5,0,0],[0.75,0,0],[1,0.25,0],[1,0.5,0],[1,0.75,0],[0.75,1,0],[0.5,1,0],[0.25,1,0],[0,0.75,0],[0,0.5,0],[0,0.25,0]];" parent="xIAbxvtqpwer93HJdYBo-10" vertex="1">
            <mxGeometry x="127" y="108" width="96" height="90" as="geometry" />
          </mxCell>
        </object>
        <mxCell id="fHrI3A-wX1QEU5ATQ9Xa-0" style="edgeStyle=orthogonalEdgeStyle;rounded=0;orthogonalLoop=1;jettySize=auto;html=1;exitX=0.5;exitY=1;exitDx=0;exitDy=0;exitPerimeter=0;" edge="1" parent="xIAbxvtqpwer93HJdYBo-10" source="xIAbxvtqpwer93HJdYBo-44" target="xIAbxvtqpwer93HJdYBo-44">
          <mxGeometry relative="1" as="geometry" />
        </mxCell>
        <object placeholders="1" c4Name="Carrinho" c4Type="Container" c4Technology="JavaScript , CSS , Html" c4Description="Adiciona Produto" label="&lt;b&gt;%c4Name%&lt;/b&gt;&lt;div&gt;[%c4Type%: %c4Technology%]&lt;/div&gt;&lt;br&gt;&lt;div&gt;%c4Description%&lt;/div&gt;" id="TRl75Bzz114yKWj5hR8O-0">
          <mxCell style="rounded=1;whiteSpace=wrap;html=1;labelBackgroundColor=none;fillColor=#85BBF0;fontColor=#ffffff;align=center;arcSize=10;strokeColor=#78A8D8;metaEdit=1;metaData={&quot;c4Type&quot;:{&quot;editable&quot;:false}};points=[[0.25,0,0],[0.5,0,0],[0.75,0,0],[1,0.25,0],[1,0.5,0],[1,0.75,0],[0.75,1,0],[0.5,1,0],[0.25,1,0],[0,0.75,0],[0,0.5,0],[0,0.25,0]];" vertex="1" parent="xIAbxvtqpwer93HJdYBo-10">
            <mxGeometry x="8" y="102" width="96" height="94" as="geometry" />
          </mxCell>
        </object>
        <mxCell id="xIAbxvtqpwer93HJdYBo-15" value="" style="group" parent="nEGDNwXGdrJV5zD8ETKe-1" vertex="1" connectable="0">
          <mxGeometry x="793" y="115" width="318" height="240" as="geometry" />
        </mxCell>
        <object placeholders="1" c4Name="" c4Type="ExecutionEnvironment" c4Application="Aplicação" label="&lt;div style=&quot;text-align: left&quot;&gt;%c4Name%&lt;/div&gt;&lt;div style=&quot;text-align: left&quot;&gt;[%c4Application%]&lt;/div&gt;" id="xIAbxvtqpwer93HJdYBo-16">
          <mxCell style="rounded=1;whiteSpace=wrap;html=1;labelBackgroundColor=none;fillColor=#ffffff;fontColor=#000000;align=left;arcSize=5;strokeColor=#000000;verticalAlign=bottom;metaEdit=1;metaData={&quot;c4Type&quot;:{&quot;editable&quot;:false}};points=[[0.25,0,0],[0.5,0,0],[0.75,0,0],[1,0.25,0],[1,0.5,0],[1,0.75,0],[0.75,1,0],[0.5,1,0],[0.25,1,0],[0,0.75,0],[0,0.5,0],[0,0.25,0]];" parent="xIAbxvtqpwer93HJdYBo-15" vertex="1">
            <mxGeometry width="318" height="240" as="geometry" />
          </mxCell>
        </object>
        <object placeholders="1" c4Name="Backend" c4Type="Container" c4Technology="C#" c4Description="Oquestrador" label="&lt;b&gt;%c4Name%&lt;/b&gt;&lt;div&gt;[%c4Type%: %c4Technology%]&lt;/div&gt;&lt;br&gt;&lt;div&gt;%c4Description%&lt;/div&gt;" id="I6UD2byCxRfw3vTUhLp8-1">
          <mxCell style="rounded=1;whiteSpace=wrap;html=1;labelBackgroundColor=none;fillColor=#85BBF0;fontColor=#ffffff;align=center;arcSize=10;strokeColor=#78A8D8;metaEdit=1;metaData={&quot;c4Type&quot;:{&quot;editable&quot;:false}};points=[[0.25,0,0],[0.5,0,0],[0.75,0,0],[1,0.25,0],[1,0.5,0],[1,0.75,0],[0.75,1,0],[0.5,1,0],[0.25,1,0],[0,0.75,0],[0,0.5,0],[0,0.25,0]];" parent="xIAbxvtqpwer93HJdYBo-15" vertex="1">
            <mxGeometry x="9" y="9" width="96" height="198" as="geometry" />
          </mxCell>
        </object>
        <object placeholders="1" c4Name="Backend" c4Type="Container" c4Technology="C#" c4Description="Agendador" label="&lt;b&gt;%c4Name%&lt;/b&gt;&lt;div&gt;[%c4Type%: %c4Technology%]&lt;/div&gt;&lt;br&gt;&lt;div&gt;%c4Description%&lt;/div&gt;" id="I6UD2byCxRfw3vTUhLp8-2">
          <mxCell style="rounded=1;whiteSpace=wrap;html=1;labelBackgroundColor=none;fillColor=#85BBF0;fontColor=#ffffff;align=center;arcSize=10;strokeColor=#78A8D8;metaEdit=1;metaData={&quot;c4Type&quot;:{&quot;editable&quot;:false}};points=[[0.25,0,0],[0.5,0,0],[0.75,0,0],[1,0.25,0],[1,0.5,0],[1,0.75,0],[0.75,1,0],[0.5,1,0],[0.25,1,0],[0,0.75,0],[0,0.5,0],[0,0.25,0]];" parent="xIAbxvtqpwer93HJdYBo-15" vertex="1">
            <mxGeometry x="126" y="11" width="158" height="68" as="geometry" />
          </mxCell>
        </object>
        <object placeholders="1" c4Name="Backend" c4Type="Container" c4Technology="C#" c4Description="Retentativa" label="&lt;b&gt;%c4Name%&lt;/b&gt;&lt;div&gt;[%c4Type%: %c4Technology%]&lt;/div&gt;&lt;br&gt;&lt;div&gt;%c4Description%&lt;/div&gt;" id="I6UD2byCxRfw3vTUhLp8-4">
          <mxCell style="rounded=1;whiteSpace=wrap;html=1;labelBackgroundColor=none;fillColor=#85BBF0;fontColor=#ffffff;align=center;arcSize=10;strokeColor=#78A8D8;metaEdit=1;metaData={&quot;c4Type&quot;:{&quot;editable&quot;:false}};points=[[0.25,0,0],[0.5,0,0],[0.75,0,0],[1,0.25,0],[1,0.5,0],[1,0.75,0],[0.75,1,0],[0.5,1,0],[0.25,1,0],[0,0.75,0],[0,0.5,0],[0,0.25,0]];" parent="xIAbxvtqpwer93HJdYBo-15" vertex="1">
            <mxGeometry x="126" y="84" width="156" height="68" as="geometry" />
          </mxCell>
        </object>
        <object placeholders="1" c4Name="Backend" c4Type="Container" c4Technology="Grafana - Aurora DB" c4Description="Logs de Integração" label="&lt;b&gt;%c4Name%&lt;/b&gt;&lt;div&gt;[%c4Type%: %c4Technology%]&lt;/div&gt;&lt;br&gt;&lt;div&gt;%c4Description%&lt;/div&gt;" id="I6UD2byCxRfw3vTUhLp8-5">
          <mxCell style="rounded=1;whiteSpace=wrap;html=1;labelBackgroundColor=none;fillColor=#85BBF0;fontColor=#ffffff;align=center;arcSize=10;strokeColor=#78A8D8;metaEdit=1;metaData={&quot;c4Type&quot;:{&quot;editable&quot;:false}};points=[[0.25,0,0],[0.5,0,0],[0.75,0,0],[1,0.25,0],[1,0.5,0],[1,0.75,0],[0.75,1,0],[0.5,1,0],[0.25,1,0],[0,0.75,0],[0,0.5,0],[0,0.25,0]];" parent="xIAbxvtqpwer93HJdYBo-15" vertex="1">
            <mxGeometry x="128" y="158" width="152" height="78" as="geometry" />
          </mxCell>
        </object>
        <object placeholders="1" c4Type="Relationship" c4Technology="" c4Description="Usa" label="&lt;div style=&quot;text-align: left&quot;&gt;&lt;div style=&quot;text-align: center&quot;&gt;&lt;b&gt;%c4Description%&lt;/b&gt;&lt;/div&gt;&lt;div style=&quot;text-align: center&quot;&gt;[%c4Technology%]&lt;/div&gt;&lt;/div&gt;" id="xIAbxvtqpwer93HJdYBo-21">
          <mxCell style="edgeStyle=none;rounded=0;html=1;jettySize=auto;orthogonalLoop=1;strokeColor=#707070;strokeWidth=2;fontColor=#707070;jumpStyle=none;dashed=1;metaEdit=1;metaData={&quot;c4Type&quot;:{&quot;editable&quot;:false}};entryX=0.5;entryY=1;entryDx=0;entryDy=0;entryPerimeter=0;exitX=0.5;exitY=0;exitDx=0;exitDy=0;exitPerimeter=0;" parent="nEGDNwXGdrJV5zD8ETKe-1" target="xIAbxvtqpwer93HJdYBo-11" edge="1">
            <mxGeometry x="-0.2157" y="10" width="160" relative="1" as="geometry">
              <mxPoint x="471" y="393" as="sourcePoint" />
              <mxPoint x="733" y="265" as="targetPoint" />
              <mxPoint as="offset" />
            </mxGeometry>
          </mxCell>
        </object>
        <object placeholders="1" c4Type="Relationship" c4Technology="" c4Description="Consome" label="&lt;div style=&quot;text-align: left&quot;&gt;&lt;div style=&quot;text-align: center&quot;&gt;&lt;b&gt;%c4Description%&lt;/b&gt;&lt;/div&gt;&lt;div style=&quot;text-align: center&quot;&gt;[%c4Technology%]&lt;/div&gt;&lt;/div&gt;" id="xIAbxvtqpwer93HJdYBo-22">
          <mxCell style="edgeStyle=none;rounded=0;html=1;jettySize=auto;orthogonalLoop=1;strokeColor=#707070;strokeWidth=2;fontColor=#707070;jumpStyle=none;dashed=1;metaEdit=1;metaData={&quot;c4Type&quot;:{&quot;editable&quot;:false}};exitX=1;exitY=0.5;exitDx=0;exitDy=0;exitPerimeter=0;" parent="nEGDNwXGdrJV5zD8ETKe-1" edge="1" target="I6UD2byCxRfw3vTUhLp8-7">
            <mxGeometry x="-0.2157" y="10" width="160" relative="1" as="geometry">
              <mxPoint x="551" y="448" as="sourcePoint" />
              <mxPoint x="829" y="447.9999999999998" as="targetPoint" />
              <mxPoint as="offset" />
              <Array as="points" />
            </mxGeometry>
          </mxCell>
        </object>
        <object placeholders="1" c4Type="Relationship" c4Technology="" c4Description="Consome" label="&lt;div style=&quot;text-align: left&quot;&gt;&lt;div style=&quot;text-align: center&quot;&gt;&lt;b&gt;%c4Description%&lt;/b&gt;&lt;/div&gt;&lt;div style=&quot;text-align: center&quot;&gt;[%c4Technology%]&lt;/div&gt;&lt;/div&gt;" id="xIAbxvtqpwer93HJdYBo-23">
          <mxCell style="edgeStyle=none;rounded=0;html=1;jettySize=auto;orthogonalLoop=1;strokeColor=#707070;strokeWidth=2;fontColor=#707070;jumpStyle=none;dashed=1;metaEdit=1;metaData={&quot;c4Type&quot;:{&quot;editable&quot;:false}};exitX=1;exitY=0.5;exitDx=0;exitDy=0;exitPerimeter=0;entryX=0.5;entryY=0;entryDx=0;entryDy=0;entryPerimeter=0;" parent="nEGDNwXGdrJV5zD8ETKe-1" edge="1" target="xIAbxvtqpwer93HJdYBo-43" source="I6UD2byCxRfw3vTUhLp8-7">
            <mxGeometry x="-0.2445" y="-12" width="160" relative="1" as="geometry">
              <mxPoint x="990" y="418.4999999999998" as="sourcePoint" />
              <mxPoint x="1506.9999999999995" y="467.9999999999998" as="targetPoint" />
              <mxPoint as="offset" />
              <Array as="points">
                <mxPoint x="1503" y="453" />
              </Array>
            </mxGeometry>
          </mxCell>
        </object>
        <mxCell id="xIAbxvtqpwer93HJdYBo-24" value="" style="group" parent="nEGDNwXGdrJV5zD8ETKe-1" vertex="1" connectable="0">
          <mxGeometry x="358" y="703" width="235" height="240" as="geometry" />
        </mxCell>
        <object placeholders="1" c4Name="" c4Type="ExecutionEnvironment" c4Application="Aplicação" label="&lt;div style=&quot;text-align: left&quot;&gt;%c4Name%&lt;/div&gt;&lt;div style=&quot;text-align: left&quot;&gt;[%c4Application%]&lt;/div&gt;" id="xIAbxvtqpwer93HJdYBo-25">
          <mxCell style="rounded=1;whiteSpace=wrap;html=1;labelBackgroundColor=none;fillColor=#ffffff;fontColor=#000000;align=left;arcSize=5;strokeColor=#000000;verticalAlign=bottom;metaEdit=1;metaData={&quot;c4Type&quot;:{&quot;editable&quot;:false}};points=[[0.25,0,0],[0.5,0,0],[0.75,0,0],[1,0.25,0],[1,0.5,0],[1,0.75,0],[0.75,1,0],[0.5,1,0],[0.25,1,0],[0,0.75,0],[0,0.5,0],[0,0.25,0]];" parent="xIAbxvtqpwer93HJdYBo-24" vertex="1">
            <mxGeometry x="2" width="235" height="240" as="geometry" />
          </mxCell>
        </object>
        <object placeholders="1" c4Name="Backend" c4Type="Container" c4Technology="Delphi" c4Description="Clientes" label="&lt;b&gt;%c4Name%&lt;/b&gt;&lt;div&gt;[%c4Type%: %c4Technology%]&lt;/div&gt;&lt;br&gt;&lt;div&gt;%c4Description%&lt;/div&gt;" id="I6UD2byCxRfw3vTUhLp8-10">
          <mxCell style="rounded=1;whiteSpace=wrap;html=1;labelBackgroundColor=none;fillColor=#85BBF0;fontColor=#ffffff;align=center;arcSize=10;strokeColor=#78A8D8;metaEdit=1;metaData={&quot;c4Type&quot;:{&quot;editable&quot;:false}};points=[[0.25,0,0],[0.5,0,0],[0.75,0,0],[1,0.25,0],[1,0.5,0],[1,0.75,0],[0.75,1,0],[0.5,1,0],[0.25,1,0],[0,0.75,0],[0,0.5,0],[0,0.25,0]];" parent="xIAbxvtqpwer93HJdYBo-24" vertex="1">
            <mxGeometry x="12" y="14" width="96" height="102" as="geometry" />
          </mxCell>
        </object>
        <object placeholders="1" c4Name="Backend" c4Type="Container" c4Technology="Delphi" c4Description="Pedidos" label="&lt;b&gt;%c4Name%&lt;/b&gt;&lt;div&gt;[%c4Type%: %c4Technology%]&lt;/div&gt;&lt;br&gt;&lt;div&gt;%c4Description%&lt;/div&gt;" id="I6UD2byCxRfw3vTUhLp8-11">
          <mxCell style="rounded=1;whiteSpace=wrap;html=1;labelBackgroundColor=none;fillColor=#85BBF0;fontColor=#ffffff;align=center;arcSize=10;strokeColor=#78A8D8;metaEdit=1;metaData={&quot;c4Type&quot;:{&quot;editable&quot;:false}};points=[[0.25,0,0],[0.5,0,0],[0.75,0,0],[1,0.25,0],[1,0.5,0],[1,0.75,0],[0.75,1,0],[0.5,1,0],[0.25,1,0],[0,0.75,0],[0,0.5,0],[0,0.25,0]];" parent="xIAbxvtqpwer93HJdYBo-24" vertex="1">
            <mxGeometry x="129" y="16" width="96" height="95" as="geometry" />
          </mxCell>
        </object>
        <object placeholders="1" c4Name="Backend" c4Type="Container" c4Technology="Delphi" c4Description="Produtos" label="&lt;b&gt;%c4Name%&lt;/b&gt;&lt;div&gt;[%c4Type%: %c4Technology%]&lt;/div&gt;&lt;br&gt;&lt;div&gt;%c4Description%&lt;/div&gt;" id="I6UD2byCxRfw3vTUhLp8-12">
          <mxCell style="rounded=1;whiteSpace=wrap;html=1;labelBackgroundColor=none;fillColor=#85BBF0;fontColor=#ffffff;align=center;arcSize=10;strokeColor=#78A8D8;metaEdit=1;metaData={&quot;c4Type&quot;:{&quot;editable&quot;:false}};points=[[0.25,0,0],[0.5,0,0],[0.75,0,0],[1,0.25,0],[1,0.5,0],[1,0.75,0],[0.75,1,0],[0.5,1,0],[0.25,1,0],[0,0.75,0],[0,0.5,0],[0,0.25,0]];" parent="xIAbxvtqpwer93HJdYBo-24" vertex="1">
            <mxGeometry x="130" y="127" width="96" height="76" as="geometry" />
          </mxCell>
        </object>
        <object placeholders="1" c4Name="Backend" c4Type="Container" c4Technology="Delphi" c4Description="Faturamento" label="&lt;b&gt;%c4Name%&lt;/b&gt;&lt;div&gt;[%c4Type%: %c4Technology%]&lt;/div&gt;&lt;br&gt;&lt;div&gt;%c4Description%&lt;/div&gt;" id="gN8TxTQMYdM50kjLnQw4-5">
          <mxCell style="rounded=1;whiteSpace=wrap;html=1;labelBackgroundColor=none;fillColor=#85BBF0;fontColor=#ffffff;align=center;arcSize=10;strokeColor=#78A8D8;metaEdit=1;metaData={&quot;c4Type&quot;:{&quot;editable&quot;:false}};points=[[0.25,0,0],[0.5,0,0],[0.75,0,0],[1,0.25,0],[1,0.5,0],[1,0.75,0],[0.75,1,0],[0.5,1,0],[0.25,1,0],[0,0.75,0],[0,0.5,0],[0,0.25,0]];" vertex="1" parent="xIAbxvtqpwer93HJdYBo-24">
            <mxGeometry x="12" y="127" width="96" height="77" as="geometry" />
          </mxCell>
        </object>
        <object placeholders="1" c4Type="Relationship" c4Technology="" c4Description="" label="&lt;div style=&quot;text-align: left&quot;&gt;&lt;div style=&quot;text-align: center&quot;&gt;&lt;b&gt;%c4Description%&lt;/b&gt;&lt;/div&gt;&lt;div style=&quot;text-align: center&quot;&gt;[%c4Technology%]&lt;/div&gt;&lt;/div&gt;" id="xIAbxvtqpwer93HJdYBo-38">
          <mxCell style="edgeStyle=none;rounded=0;html=1;jettySize=auto;orthogonalLoop=1;strokeColor=#707070;strokeWidth=2;fontColor=#707070;jumpStyle=none;dashed=1;metaEdit=1;metaData={&quot;c4Type&quot;:{&quot;editable&quot;:false}};entryX=0.5;entryY=1;entryDx=0;entryDy=0;entryPerimeter=0;" parent="nEGDNwXGdrJV5zD8ETKe-1" edge="1">
            <mxGeometry x="-0.2445" y="-12" width="160" relative="1" as="geometry">
              <mxPoint x="1214" y="883" as="sourcePoint" />
              <mxPoint x="1517" y="842" as="targetPoint" />
              <mxPoint as="offset" />
              <Array as="points">
                <mxPoint x="1517" y="883" />
              </Array>
            </mxGeometry>
          </mxCell>
        </object>
        <object placeholders="1" c4Type="Relationship" c4Technology="" c4Description="Usa" label="&lt;div style=&quot;text-align: left&quot;&gt;&lt;div style=&quot;text-align: center&quot;&gt;&lt;b&gt;%c4Description%&lt;/b&gt;&lt;/div&gt;&lt;div style=&quot;text-align: center&quot;&gt;[%c4Technology%]&lt;/div&gt;&lt;/div&gt;" id="xIAbxvtqpwer93HJdYBo-39">
          <mxCell style="edgeStyle=none;rounded=0;html=1;jettySize=auto;orthogonalLoop=1;strokeColor=#707070;strokeWidth=2;fontColor=#707070;jumpStyle=none;dashed=1;metaEdit=1;metaData={&quot;c4Type&quot;:{&quot;editable&quot;:false}};entryX=0.5;entryY=1;entryDx=0;entryDy=0;entryPerimeter=0;exitX=0.5;exitY=0;exitDx=0;exitDy=0;exitPerimeter=0;" parent="nEGDNwXGdrJV5zD8ETKe-1" edge="1">
            <mxGeometry x="-0.2157" y="10" width="160" relative="1" as="geometry">
              <mxPoint x="475" y="699" as="sourcePoint" />
              <mxPoint x="475.5" y="651" as="targetPoint" />
              <mxPoint as="offset" />
            </mxGeometry>
          </mxCell>
        </object>
        <object placeholders="1" c4Type="Relationship" c4Technology="" c4Description="Opera" label="&lt;div style=&quot;text-align: left&quot;&gt;&lt;div style=&quot;text-align: center&quot;&gt;&lt;b&gt;%c4Description%&lt;/b&gt;&lt;/div&gt;&lt;div style=&quot;text-align: center&quot;&gt;[%c4Technology%]&lt;/div&gt;&lt;/div&gt;" id="xIAbxvtqpwer93HJdYBo-41">
          <mxCell style="edgeStyle=none;rounded=0;html=1;jettySize=auto;orthogonalLoop=1;strokeColor=#707070;strokeWidth=2;fontColor=#707070;jumpStyle=none;dashed=1;metaEdit=1;metaData={&quot;c4Type&quot;:{&quot;editable&quot;:false}};entryX=0;entryY=0.25;entryDx=0;entryDy=0;entryPerimeter=0;" parent="nEGDNwXGdrJV5zD8ETKe-1" edge="1">
            <mxGeometry x="-0.2157" y="10" width="160" relative="1" as="geometry">
              <mxPoint x="180.99712589073624" y="602" as="sourcePoint" />
              <mxPoint x="393" y="566.5" as="targetPoint" />
              <mxPoint as="offset" />
              <Array as="points">
                <mxPoint x="181" y="567" />
              </Array>
            </mxGeometry>
          </mxCell>
        </object>
        <object placeholders="1" c4Name="Armazenamento" c4Type="Component" c4Technology="MySQL" c4Description="Data Base" label="&lt;b&gt;%c4Name%&lt;/b&gt;&lt;div&gt;[%c4Type%: %c4Technology%]&lt;/div&gt;&lt;br&gt;&lt;div&gt;%c4Description%&lt;/div&gt;" id="xIAbxvtqpwer93HJdYBo-43">
          <mxCell style="rounded=1;whiteSpace=wrap;html=1;labelBackgroundColor=none;fillColor=#dae8fc;align=center;arcSize=10;strokeColor=#6c8ebf;metaEdit=1;metaData={&quot;c4Type&quot;:{&quot;editable&quot;:false}};points=[[0.25,0,0],[0.5,0,0],[0.75,0,0],[1,0.25,0],[1,0.5,0],[1,0.75,0],[0.75,1,0],[0.5,1,0],[0.25,1,0],[0,0.75,0],[0,0.5,0],[0,0.25,0]];gradientColor=#7ea6e0;" parent="nEGDNwXGdrJV5zD8ETKe-1" vertex="1">
            <mxGeometry x="1422" y="508" width="160" height="110.00000000000001" as="geometry" />
          </mxCell>
        </object>
        <object placeholders="1" c4Name="FrontEnd" c4Type="Container" c4Technology="Java Script , CSS , Html " c4Description="Loja Virtual" label="&lt;b&gt;%c4Name%&lt;/b&gt;&lt;div&gt;[%c4Type%: %c4Technology%]&lt;/div&gt;&lt;br&gt;&lt;div&gt;%c4Description%&lt;/div&gt;" id="I6UD2byCxRfw3vTUhLp8-6">
          <mxCell style="rounded=1;whiteSpace=wrap;html=1;labelBackgroundColor=none;fillColor=#85BBF0;fontColor=#ffffff;align=center;arcSize=10;strokeColor=#78A8D8;metaEdit=1;metaData={&quot;c4Type&quot;:{&quot;editable&quot;:false}};points=[[0.25,0,0],[0.5,0,0],[0.75,0,0],[1,0.25,0],[1,0.5,0],[1,0.75,0],[0.75,1,0],[0.5,1,0],[0.25,1,0],[0,0.75,0],[0,0.5,0],[0,0.25,0]];" parent="nEGDNwXGdrJV5zD8ETKe-1" vertex="1">
            <mxGeometry x="389" y="393" width="157" height="112" as="geometry" />
          </mxCell>
        </object>
        <object placeholders="1" c4Name="Frontend" c4Type="Container" c4Technology="C#" c4Description="Portal de Configuração" label="&lt;b&gt;%c4Name%&lt;/b&gt;&lt;div&gt;[%c4Type%: %c4Technology%]&lt;/div&gt;&lt;br&gt;&lt;div&gt;%c4Description%&lt;/div&gt;" id="I6UD2byCxRfw3vTUhLp8-7">
          <mxCell style="rounded=1;whiteSpace=wrap;html=1;labelBackgroundColor=none;fillColor=#85BBF0;fontColor=#ffffff;align=center;arcSize=10;strokeColor=#78A8D8;metaEdit=1;metaData={&quot;c4Type&quot;:{&quot;editable&quot;:false}};points=[[0.25,0,0],[0.5,0,0],[0.75,0,0],[1,0.25,0],[1,0.5,0],[1,0.75,0],[0.75,1,0],[0.5,1,0],[0.25,1,0],[0,0.75,0],[0,0.5,0],[0,0.25,0]];" parent="nEGDNwXGdrJV5zD8ETKe-1" vertex="1">
            <mxGeometry x="874" y="394" width="157" height="112" as="geometry" />
          </mxCell>
        </object>
        <object placeholders="1" c4Name="BackOfice" c4Type="Container" c4Technology="Delphi" c4Description="ERP" label="&lt;b&gt;%c4Name%&lt;/b&gt;&lt;div&gt;[%c4Type%: %c4Technology%]&lt;/div&gt;&lt;br&gt;&lt;div&gt;%c4Description%&lt;/div&gt;" id="I6UD2byCxRfw3vTUhLp8-8">
          <mxCell style="rounded=1;whiteSpace=wrap;html=1;labelBackgroundColor=none;fillColor=#85BBF0;fontColor=#ffffff;align=center;arcSize=10;strokeColor=#78A8D8;metaEdit=1;metaData={&quot;c4Type&quot;:{&quot;editable&quot;:false}};points=[[0.25,0,0],[0.5,0,0],[0.75,0,0],[1,0.25,0],[1,0.5,0],[1,0.75,0],[0.75,1,0],[0.5,1,0],[0.25,1,0],[0,0.75,0],[0,0.5,0],[0,0.25,0]];" parent="nEGDNwXGdrJV5zD8ETKe-1" vertex="1">
            <mxGeometry x="387" y="531" width="157" height="112" as="geometry" />
          </mxCell>
        </object>
        <object placeholders="1" c4Name="Armazenamento" c4Type="Component" c4Technology="SQLServer" c4Description="Data Base" label="&lt;b&gt;%c4Name%&lt;/b&gt;&lt;div&gt;[%c4Type%: %c4Technology%]&lt;/div&gt;&lt;br&gt;&lt;div&gt;%c4Description%&lt;/div&gt;" id="-cRqzTbIX8X7i5XcJNty-0">
          <mxCell style="rounded=1;whiteSpace=wrap;html=1;labelBackgroundColor=none;fillColor=#dae8fc;align=center;arcSize=10;strokeColor=#6c8ebf;metaEdit=1;metaData={&quot;c4Type&quot;:{&quot;editable&quot;:false}};points=[[0.25,0,0],[0.5,0,0],[0.75,0,0],[1,0.25,0],[1,0.5,0],[1,0.75,0],[0.75,1,0],[0.5,1,0],[0.25,1,0],[0,0.75,0],[0,0.5,0],[0,0.25,0]];gradientColor=#7ea6e0;" vertex="1" parent="nEGDNwXGdrJV5zD8ETKe-1">
            <mxGeometry x="1433" y="732" width="160" height="110.00000000000001" as="geometry" />
          </mxCell>
        </object>
        <object placeholders="1" c4Type="Relationship" c4Technology="" c4Description="Conecta" label="&lt;div style=&quot;text-align: left&quot;&gt;&lt;div style=&quot;text-align: center&quot;&gt;&lt;b&gt;%c4Description%&lt;/b&gt;&lt;/div&gt;&lt;div style=&quot;text-align: center&quot;&gt;[%c4Technology%]&lt;/div&gt;&lt;/div&gt;" id="ZJe6jonf745BS3YC_B8f-0">
          <mxCell style="edgeStyle=none;rounded=0;html=1;jettySize=auto;orthogonalLoop=1;strokeColor=#707070;strokeWidth=2;fontColor=#707070;jumpStyle=none;dashed=1;metaEdit=1;metaData={&quot;c4Type&quot;:{&quot;editable&quot;:false}};exitX=0.994;exitY=0.571;exitDx=0;exitDy=0;exitPerimeter=0;" edge="1" parent="nEGDNwXGdrJV5zD8ETKe-1" source="I6UD2byCxRfw3vTUhLp8-8">
            <mxGeometry x="-0.2157" y="10" width="160" relative="1" as="geometry">
              <mxPoint x="820" y="593" as="sourcePoint" />
              <mxPoint x="1213" y="883" as="targetPoint" />
              <mxPoint as="offset" />
              <Array as="points">
                <mxPoint x="1213" y="595" />
              </Array>
            </mxGeometry>
          </mxCell>
        </object>
        <mxCell id="ZJe6jonf745BS3YC_B8f-2" value="" style="endArrow=classic;html=1;rounded=0;exitX=0.5;exitY=1;exitDx=0;exitDy=0;exitPerimeter=0;entryX=0.455;entryY=0.005;entryDx=0;entryDy=0;entryPerimeter=0;" edge="1" parent="nEGDNwXGdrJV5zD8ETKe-1" source="xIAbxvtqpwer93HJdYBo-43" target="-cRqzTbIX8X7i5XcJNty-0">
          <mxGeometry width="50" height="50" relative="1" as="geometry">
            <mxPoint x="1470" y="683" as="sourcePoint" />
            <mxPoint x="1520" y="633" as="targetPoint" />
            <Array as="points" />
          </mxGeometry>
        </mxCell>
        <mxCell id="4F1yy_RJhnO5R1sdsERq-0" value="&lt;h1 style=&quot;margin-top: 0px;&quot;&gt;Dores&lt;/h1&gt;&lt;div&gt;- Gargalo de Pedidos&lt;/div&gt;&lt;div&gt;- Limitação de 10 mil pedidos/dia&amp;nbsp;&lt;/div&gt;&lt;div&gt;&lt;br&gt;&lt;/div&gt;" style="text;html=1;whiteSpace=wrap;overflow=hidden;rounded=0;" vertex="1" parent="nEGDNwXGdrJV5zD8ETKe-1">
          <mxGeometry x="1735" y="378" width="232" height="120" as="geometry" />
        </mxCell>
      </root>
    </mxGraphModel>
  </diagram>
  <diagram id="gYeAYjNO0wi28qSOrEgg" name="Solução-1">
    <mxGraphModel dx="1793" dy="923" grid="1" gridSize="10" guides="1" tooltips="1" connect="1" arrows="1" fold="1" page="1" pageScale="1" pageWidth="827" pageHeight="1169" math="0" shadow="0">
      <root>
        <mxCell id="1rxxj6Tkf9t04wxoIUcR-0" />
        <mxCell id="1rxxj6Tkf9t04wxoIUcR-1" parent="1rxxj6Tkf9t04wxoIUcR-0" />
        <object placeholders="1" c4Name="Client Envirolment" c4Type="DeploymentNode" c4OperationSystem="" c4ScalingFactor="" label="&lt;div style=&quot;text-align: left&quot;&gt;%c4Name%&lt;/div&gt;&lt;div style=&quot;text-align: left&quot;&gt;[%c4OperationSystem%]&lt;/div&gt;&lt;div style=&quot;text-align: right&quot;&gt;%c4ScalingFactor%&lt;/div&gt;" id="ow6HCTajVvfa3-Voc0vE-0">
          <mxCell style="rounded=1;whiteSpace=wrap;html=1;labelBackgroundColor=none;fillColor=#ffffff;fontColor=#000000;align=left;arcSize=5;strokeColor=#000000;verticalAlign=bottom;metaEdit=1;metaData={&quot;c4Type&quot;:{&quot;editable&quot;:false}};points=[[0.25,0,0],[0.5,0,0],[0.75,0,0],[1,0.25,0],[1,0.5,0],[1,0.75,0],[0.75,1,0],[0.5,1,0],[0.25,1,0],[0,0.75,0],[0,0.5,0],[0,0.25,0]];" vertex="1" parent="1rxxj6Tkf9t04wxoIUcR-1">
            <mxGeometry x="46" y="71" width="1300" height="945" as="geometry" />
          </mxCell>
        </object>
        <object placeholders="1" c4Name="2Lig" c4Type="DeploymentNode" c4OperationSystem="integrador" c4ScalingFactor="SAAS" label="&lt;div style=&quot;text-align: left&quot;&gt;%c4Name%&lt;/div&gt;&lt;div style=&quot;text-align: left&quot;&gt;[%c4OperationSystem%]&lt;/div&gt;&lt;div style=&quot;text-align: right&quot;&gt;%c4ScalingFactor%&lt;/div&gt;" id="ow6HCTajVvfa3-Voc0vE-1">
          <mxCell style="rounded=1;whiteSpace=wrap;html=1;labelBackgroundColor=none;fillColor=#ffffff;fontColor=#000000;align=left;arcSize=5;strokeColor=#000000;verticalAlign=bottom;metaEdit=1;metaData={&quot;c4Type&quot;:{&quot;editable&quot;:false}};points=[[0.25,0,0],[0.5,0,0],[0.75,0,0],[1,0.25,0],[1,0.5,0],[1,0.75,0],[0.75,1,0],[0.5,1,0],[0.25,1,0],[0,0.75,0],[0,0.5,0],[0,0.25,0]];" vertex="1" parent="1rxxj6Tkf9t04wxoIUcR-1">
            <mxGeometry x="696" y="97" width="568" height="414" as="geometry" />
          </mxCell>
        </object>
        <object placeholders="1" c4Name="Armazenamento" c4Type="DeploymentNode" c4OperationSystem="API" c4ScalingFactor="SAAS" label="&lt;div style=&quot;text-align: left&quot;&gt;%c4Name%&lt;/div&gt;&lt;div style=&quot;text-align: left&quot;&gt;[%c4OperationSystem%]&lt;/div&gt;&lt;div style=&quot;text-align: right&quot;&gt;%c4ScalingFactor%&lt;/div&gt;" id="ow6HCTajVvfa3-Voc0vE-2">
          <mxCell style="rounded=1;whiteSpace=wrap;html=1;labelBackgroundColor=none;fillColor=#ffffff;fontColor=#000000;align=left;arcSize=5;strokeColor=#000000;verticalAlign=bottom;metaEdit=1;metaData={&quot;c4Type&quot;:{&quot;editable&quot;:false}};points=[[0.25,0,0],[0.5,0,0],[0.75,0,0],[1,0.25,0],[1,0.5,0],[1,0.75,0],[0.75,1,0],[0.5,1,0],[0.25,1,0],[0,0.75,0],[0,0.5,0],[0,0.25,0]];" vertex="1" parent="1rxxj6Tkf9t04wxoIUcR-1">
            <mxGeometry x="1387" y="74" width="267" height="949" as="geometry" />
          </mxCell>
        </object>
        <object placeholders="1" c4Name="ERP" c4Type="DeploymentNode" c4OperationSystem="kpl" c4ScalingFactor="SAAS" label="&lt;div style=&quot;text-align: left&quot;&gt;%c4Name%&lt;/div&gt;&lt;div style=&quot;text-align: left&quot;&gt;[%c4OperationSystem%]&lt;/div&gt;&lt;div style=&quot;text-align: right&quot;&gt;%c4ScalingFactor%&lt;/div&gt;" id="ow6HCTajVvfa3-Voc0vE-3">
          <mxCell style="rounded=1;whiteSpace=wrap;html=1;labelBackgroundColor=none;fillColor=#ffffff;fontColor=#000000;align=left;arcSize=5;strokeColor=#000000;verticalAlign=bottom;metaEdit=1;metaData={&quot;c4Type&quot;:{&quot;editable&quot;:false}};points=[[0.25,0,0],[0.5,0,0],[0.75,0,0],[1,0.25,0],[1,0.5,0],[1,0.75,0],[0.75,1,0],[0.5,1,0],[0.25,1,0],[0,0.75,0],[0,0.5,0],[0,0.25,0]];" vertex="1" parent="1rxxj6Tkf9t04wxoIUcR-1">
            <mxGeometry x="299" y="517" width="1025" height="448" as="geometry" />
          </mxCell>
        </object>
        <object placeholders="1" c4Name="VTEX" c4Type="DeploymentNode" c4OperationSystem="Ecommerce" c4ScalingFactor="SAAS" label="&lt;div style=&quot;text-align: left&quot;&gt;%c4Name%&lt;/div&gt;&lt;div style=&quot;text-align: left&quot;&gt;[%c4OperationSystem%]&lt;/div&gt;&lt;div style=&quot;text-align: right&quot;&gt;%c4ScalingFactor%&lt;/div&gt;" id="ow6HCTajVvfa3-Voc0vE-4">
          <mxCell style="rounded=1;whiteSpace=wrap;html=1;labelBackgroundColor=none;fillColor=#ffffff;fontColor=#000000;align=left;arcSize=5;strokeColor=#000000;verticalAlign=bottom;metaEdit=1;metaData={&quot;c4Type&quot;:{&quot;editable&quot;:false}};points=[[0.25,0,0],[0.5,0,0],[0.75,0,0],[1,0.25,0],[1,0.5,0],[1,0.75,0],[0.75,1,0],[0.5,1,0],[0.25,1,0],[0,0.75,0],[0,0.5,0],[0,0.25,0]];" vertex="1" parent="1rxxj6Tkf9t04wxoIUcR-1">
            <mxGeometry x="71" y="95" width="568" height="414" as="geometry" />
          </mxCell>
        </object>
        <object c4Name="Cliente E-commerce" c4Type="Person" c4Description="Compra pelo Site" label="&lt;b&gt;%c4Name%&lt;/b&gt;&lt;div&gt;[%c4Type%]&lt;/div&gt;&lt;br&gt;&lt;div&gt;%c4Description%&lt;/div&gt;" placeholders="1" id="ow6HCTajVvfa3-Voc0vE-5">
          <mxCell style="html=1;dashed=0;whitespace=wrap;fillColor=#dae8fc;strokeColor=#6c8ebf;shape=mxgraph.c4.person;align=center;metaEdit=1;points=[[0.5,0,0],[1,0.5,0],[1,0.75,0],[0.75,1,0],[0.5,1,0],[0.25,1,0],[0,0.75,0],[0,0.5,0]];metaData={&quot;c4Type&quot;:{&quot;editable&quot;:false}};gradientColor=#7ea6e0;" vertex="1" parent="1rxxj6Tkf9t04wxoIUcR-1">
            <mxGeometry x="105" y="163" width="168" height="169" as="geometry" />
          </mxCell>
        </object>
        <object c4Name="Operação" c4Type="Person" c4Description="Suporte Operação" label="&lt;b&gt;%c4Name%&lt;/b&gt;&lt;div&gt;[%c4Type%]&lt;/div&gt;&lt;br&gt;&lt;div&gt;%c4Description%&lt;/div&gt;" placeholders="1" id="ow6HCTajVvfa3-Voc0vE-6">
          <mxCell style="html=1;dashed=0;whitespace=wrap;fillColor=#f5f5f5;strokeColor=#666666;shape=mxgraph.c4.person;align=center;metaEdit=1;points=[[0.5,0,0],[1,0.5,0],[1,0.75,0],[0.75,1,0],[0.5,1,0],[0.25,1,0],[0,0.75,0],[0,0.5,0]];metaData={&quot;c4Type&quot;:{&quot;editable&quot;:false}};gradientColor=#b3b3b3;" vertex="1" parent="1rxxj6Tkf9t04wxoIUcR-1">
            <mxGeometry x="99" y="603" width="168" height="169" as="geometry" />
          </mxCell>
        </object>
        <object placeholders="1" c4Type="Relationship" c4Technology="" c4Description="Usa" label="&lt;div style=&quot;text-align: left&quot;&gt;&lt;div style=&quot;text-align: center&quot;&gt;&lt;b&gt;%c4Description%&lt;/b&gt;&lt;/div&gt;&lt;div style=&quot;text-align: center&quot;&gt;[%c4Technology%]&lt;/div&gt;&lt;/div&gt;" id="ow6HCTajVvfa3-Voc0vE-7">
          <mxCell style="edgeStyle=none;rounded=0;html=1;jettySize=auto;orthogonalLoop=1;strokeColor=#707070;strokeWidth=2;fontColor=#707070;jumpStyle=none;dashed=1;metaEdit=1;metaData={&quot;c4Type&quot;:{&quot;editable&quot;:false}};entryX=0.5;entryY=1;entryDx=0;entryDy=0;entryPerimeter=0;exitX=0.5;exitY=0;exitDx=0;exitDy=0;exitPerimeter=0;" edge="1" parent="1rxxj6Tkf9t04wxoIUcR-1" source="ow6HCTajVvfa3-Voc0vE-36" target="ow6HCTajVvfa3-Voc0vE-17">
            <mxGeometry x="-0.2157" y="10" width="160" relative="1" as="geometry">
              <mxPoint x="912" y="384" as="sourcePoint" />
              <mxPoint x="952" y="384" as="targetPoint" />
              <mxPoint as="offset" />
            </mxGeometry>
          </mxCell>
        </object>
        <object placeholders="1" c4Type="Relationship" c4Technology="" c4Description="Acessa" label="&lt;div style=&quot;text-align: left&quot;&gt;&lt;div style=&quot;text-align: center&quot;&gt;&lt;b&gt;%c4Description%&lt;/b&gt;&lt;/div&gt;&lt;div style=&quot;text-align: center&quot;&gt;[%c4Technology%]&lt;/div&gt;&lt;/div&gt;" id="ow6HCTajVvfa3-Voc0vE-8">
          <mxCell style="edgeStyle=none;rounded=0;html=1;jettySize=auto;orthogonalLoop=1;strokeColor=#707070;strokeWidth=2;fontColor=#707070;jumpStyle=none;dashed=1;metaEdit=1;metaData={&quot;c4Type&quot;:{&quot;editable&quot;:false}};entryX=0.011;entryY=0.595;entryDx=0;entryDy=0;entryPerimeter=0;" edge="1" parent="1rxxj6Tkf9t04wxoIUcR-1" source="ow6HCTajVvfa3-Voc0vE-5">
            <mxGeometry x="-0.2157" y="10" width="160" relative="1" as="geometry">
              <mxPoint x="271.99800000000005" y="257.0280000000001" as="sourcePoint" />
              <mxPoint x="392.7600000000002" y="458.4499999999998" as="targetPoint" />
              <mxPoint as="offset" />
              <Array as="points">
                <mxPoint x="194" y="458" />
              </Array>
            </mxGeometry>
          </mxCell>
        </object>
        <mxCell id="ow6HCTajVvfa3-Voc0vE-9" value="" style="group" vertex="1" connectable="0" parent="1rxxj6Tkf9t04wxoIUcR-1">
          <mxGeometry x="352" y="105" width="235" height="240" as="geometry" />
        </mxCell>
        <object placeholders="1" c4Name="" c4Type="ExecutionEnvironment" c4Application="Aplicação" label="&lt;div style=&quot;text-align: left&quot;&gt;%c4Name%&lt;/div&gt;&lt;div style=&quot;text-align: left&quot;&gt;[%c4Application%]&lt;/div&gt;" id="ow6HCTajVvfa3-Voc0vE-10">
          <mxCell style="rounded=1;whiteSpace=wrap;html=1;labelBackgroundColor=none;fillColor=#ffffff;fontColor=#000000;align=left;arcSize=5;strokeColor=#000000;verticalAlign=bottom;metaEdit=1;metaData={&quot;c4Type&quot;:{&quot;editable&quot;:false}};points=[[0.25,0,0],[0.5,0,0],[0.75,0,0],[1,0.25,0],[1,0.5,0],[1,0.75,0],[0.75,1,0],[0.5,1,0],[0.25,1,0],[0,0.75,0],[0,0.5,0],[0,0.25,0]];" vertex="1" parent="ow6HCTajVvfa3-Voc0vE-9">
            <mxGeometry x="2" width="235" height="240" as="geometry" />
          </mxCell>
        </object>
        <object placeholders="1" c4Name="Backend" c4Type="Container" c4Technology="C#" c4Description="Administra Pedido" label="&lt;b&gt;%c4Name%&lt;/b&gt;&lt;div&gt;[%c4Type%: %c4Technology%]&lt;/div&gt;&lt;br&gt;&lt;div&gt;%c4Description%&lt;/div&gt;" id="ow6HCTajVvfa3-Voc0vE-11">
          <mxCell style="rounded=1;whiteSpace=wrap;html=1;labelBackgroundColor=none;fillColor=#85BBF0;fontColor=#ffffff;align=center;arcSize=10;strokeColor=#78A8D8;metaEdit=1;metaData={&quot;c4Type&quot;:{&quot;editable&quot;:false}};points=[[0.25,0,0],[0.5,0,0],[0.75,0,0],[1,0.25,0],[1,0.5,0],[1,0.75,0],[0.75,1,0],[0.5,1,0],[0.25,1,0],[0,0.75,0],[0,0.5,0],[0,0.25,0]];" vertex="1" parent="ow6HCTajVvfa3-Voc0vE-9">
            <mxGeometry x="9" y="9" width="96" height="86" as="geometry" />
          </mxCell>
        </object>
        <object placeholders="1" c4Name="Frete" c4Type="Container" c4Technology="Nodejs" c4Description="Calcula Frete" label="&lt;b&gt;%c4Name%&lt;/b&gt;&lt;div&gt;[%c4Type%: %c4Technology%]&lt;/div&gt;&lt;br&gt;&lt;div&gt;%c4Description%&lt;/div&gt;" id="ow6HCTajVvfa3-Voc0vE-12">
          <mxCell style="rounded=1;whiteSpace=wrap;html=1;labelBackgroundColor=none;fillColor=#85BBF0;fontColor=#ffffff;align=center;arcSize=10;strokeColor=#78A8D8;metaEdit=1;metaData={&quot;c4Type&quot;:{&quot;editable&quot;:false}};points=[[0.25,0,0],[0.5,0,0],[0.75,0,0],[1,0.25,0],[1,0.5,0],[1,0.75,0],[0.75,1,0],[0.5,1,0],[0.25,1,0],[0,0.75,0],[0,0.5,0],[0,0.25,0]];" vertex="1" parent="ow6HCTajVvfa3-Voc0vE-9">
            <mxGeometry x="126" y="11" width="96" height="83" as="geometry" />
          </mxCell>
        </object>
        <object placeholders="1" c4Name="Gateway" c4Type="Container" c4Technology="C# , Mongo" c4Description="Efetua Pagamento" label="&lt;b&gt;%c4Name%&lt;/b&gt;&lt;div&gt;[%c4Type%: %c4Technology%]&lt;/div&gt;&lt;br&gt;&lt;div&gt;%c4Description%&lt;/div&gt;" id="ow6HCTajVvfa3-Voc0vE-13">
          <mxCell style="rounded=1;whiteSpace=wrap;html=1;labelBackgroundColor=none;fillColor=#85BBF0;fontColor=#ffffff;align=center;arcSize=10;strokeColor=#78A8D8;metaEdit=1;metaData={&quot;c4Type&quot;:{&quot;editable&quot;:false}};points=[[0.25,0,0],[0.5,0,0],[0.75,0,0],[1,0.25,0],[1,0.5,0],[1,0.75,0],[0.75,1,0],[0.5,1,0],[0.25,1,0],[0,0.75,0],[0,0.5,0],[0,0.25,0]];" vertex="1" parent="ow6HCTajVvfa3-Voc0vE-9">
            <mxGeometry x="127" y="108" width="96" height="90" as="geometry" />
          </mxCell>
        </object>
        <mxCell id="ow6HCTajVvfa3-Voc0vE-14" style="edgeStyle=orthogonalEdgeStyle;rounded=0;orthogonalLoop=1;jettySize=auto;html=1;exitX=0.5;exitY=1;exitDx=0;exitDy=0;exitPerimeter=0;" edge="1" parent="ow6HCTajVvfa3-Voc0vE-9" source="ow6HCTajVvfa3-Voc0vE-11" target="ow6HCTajVvfa3-Voc0vE-11">
          <mxGeometry relative="1" as="geometry" />
        </mxCell>
        <object placeholders="1" c4Name="Carrinho" c4Type="Container" c4Technology="JavaScript , CSS , Html" c4Description="Adiciona Produto" label="&lt;b&gt;%c4Name%&lt;/b&gt;&lt;div&gt;[%c4Type%: %c4Technology%]&lt;/div&gt;&lt;br&gt;&lt;div&gt;%c4Description%&lt;/div&gt;" id="ow6HCTajVvfa3-Voc0vE-15">
          <mxCell style="rounded=1;whiteSpace=wrap;html=1;labelBackgroundColor=none;fillColor=#85BBF0;fontColor=#ffffff;align=center;arcSize=10;strokeColor=#78A8D8;metaEdit=1;metaData={&quot;c4Type&quot;:{&quot;editable&quot;:false}};points=[[0.25,0,0],[0.5,0,0],[0.75,0,0],[1,0.25,0],[1,0.5,0],[1,0.75,0],[0.75,1,0],[0.5,1,0],[0.25,1,0],[0,0.75,0],[0,0.5,0],[0,0.25,0]];" vertex="1" parent="ow6HCTajVvfa3-Voc0vE-9">
            <mxGeometry x="8" y="102" width="96" height="94" as="geometry" />
          </mxCell>
        </object>
        <mxCell id="ow6HCTajVvfa3-Voc0vE-16" value="" style="group" vertex="1" connectable="0" parent="1rxxj6Tkf9t04wxoIUcR-1">
          <mxGeometry x="793" y="115" width="318" height="240" as="geometry" />
        </mxCell>
        <object placeholders="1" c4Name="" c4Type="ExecutionEnvironment" c4Application="Aplicação" label="&lt;div style=&quot;text-align: left&quot;&gt;%c4Name%&lt;/div&gt;&lt;div style=&quot;text-align: left&quot;&gt;[%c4Application%]&lt;/div&gt;" id="ow6HCTajVvfa3-Voc0vE-17">
          <mxCell style="rounded=1;whiteSpace=wrap;html=1;labelBackgroundColor=none;fillColor=#ffffff;fontColor=#000000;align=left;arcSize=5;strokeColor=#000000;verticalAlign=bottom;metaEdit=1;metaData={&quot;c4Type&quot;:{&quot;editable&quot;:false}};points=[[0.25,0,0],[0.5,0,0],[0.75,0,0],[1,0.25,0],[1,0.5,0],[1,0.75,0],[0.75,1,0],[0.5,1,0],[0.25,1,0],[0,0.75,0],[0,0.5,0],[0,0.25,0]];" vertex="1" parent="ow6HCTajVvfa3-Voc0vE-16">
            <mxGeometry width="318" height="240" as="geometry" />
          </mxCell>
        </object>
        <object placeholders="1" c4Name="Backend" c4Type="Container" c4Technology="C#" c4Description="Oquestrador" label="&lt;b&gt;%c4Name%&lt;/b&gt;&lt;div&gt;[%c4Type%: %c4Technology%]&lt;/div&gt;&lt;br&gt;&lt;div&gt;%c4Description%&lt;/div&gt;" id="ow6HCTajVvfa3-Voc0vE-18">
          <mxCell style="rounded=1;whiteSpace=wrap;html=1;labelBackgroundColor=none;fillColor=#85BBF0;fontColor=#ffffff;align=center;arcSize=10;strokeColor=#78A8D8;metaEdit=1;metaData={&quot;c4Type&quot;:{&quot;editable&quot;:false}};points=[[0.25,0,0],[0.5,0,0],[0.75,0,0],[1,0.25,0],[1,0.5,0],[1,0.75,0],[0.75,1,0],[0.5,1,0],[0.25,1,0],[0,0.75,0],[0,0.5,0],[0,0.25,0]];" vertex="1" parent="ow6HCTajVvfa3-Voc0vE-16">
            <mxGeometry x="9" y="9" width="96" height="198" as="geometry" />
          </mxCell>
        </object>
        <object placeholders="1" c4Name="Backend" c4Type="Container" c4Technology="C#" c4Description="Agendador" label="&lt;b&gt;%c4Name%&lt;/b&gt;&lt;div&gt;[%c4Type%: %c4Technology%]&lt;/div&gt;&lt;br&gt;&lt;div&gt;%c4Description%&lt;/div&gt;" id="ow6HCTajVvfa3-Voc0vE-19">
          <mxCell style="rounded=1;whiteSpace=wrap;html=1;labelBackgroundColor=none;fillColor=#85BBF0;fontColor=#ffffff;align=center;arcSize=10;strokeColor=#78A8D8;metaEdit=1;metaData={&quot;c4Type&quot;:{&quot;editable&quot;:false}};points=[[0.25,0,0],[0.5,0,0],[0.75,0,0],[1,0.25,0],[1,0.5,0],[1,0.75,0],[0.75,1,0],[0.5,1,0],[0.25,1,0],[0,0.75,0],[0,0.5,0],[0,0.25,0]];" vertex="1" parent="ow6HCTajVvfa3-Voc0vE-16">
            <mxGeometry x="126" y="11" width="158" height="68" as="geometry" />
          </mxCell>
        </object>
        <object placeholders="1" c4Name="Backend" c4Type="Container" c4Technology="C#" c4Description="Retentativa" label="&lt;b&gt;%c4Name%&lt;/b&gt;&lt;div&gt;[%c4Type%: %c4Technology%]&lt;/div&gt;&lt;br&gt;&lt;div&gt;%c4Description%&lt;/div&gt;" id="ow6HCTajVvfa3-Voc0vE-20">
          <mxCell style="rounded=1;whiteSpace=wrap;html=1;labelBackgroundColor=none;fillColor=#85BBF0;fontColor=#ffffff;align=center;arcSize=10;strokeColor=#78A8D8;metaEdit=1;metaData={&quot;c4Type&quot;:{&quot;editable&quot;:false}};points=[[0.25,0,0],[0.5,0,0],[0.75,0,0],[1,0.25,0],[1,0.5,0],[1,0.75,0],[0.75,1,0],[0.5,1,0],[0.25,1,0],[0,0.75,0],[0,0.5,0],[0,0.25,0]];" vertex="1" parent="ow6HCTajVvfa3-Voc0vE-16">
            <mxGeometry x="126" y="84" width="156" height="68" as="geometry" />
          </mxCell>
        </object>
        <object placeholders="1" c4Name="Backend" c4Type="Container" c4Technology="Grafana - Aurora DB" c4Description="Logs de Integração" label="&lt;b&gt;%c4Name%&lt;/b&gt;&lt;div&gt;[%c4Type%: %c4Technology%]&lt;/div&gt;&lt;br&gt;&lt;div&gt;%c4Description%&lt;/div&gt;" id="ow6HCTajVvfa3-Voc0vE-21">
          <mxCell style="rounded=1;whiteSpace=wrap;html=1;labelBackgroundColor=none;fillColor=#85BBF0;fontColor=#ffffff;align=center;arcSize=10;strokeColor=#78A8D8;metaEdit=1;metaData={&quot;c4Type&quot;:{&quot;editable&quot;:false}};points=[[0.25,0,0],[0.5,0,0],[0.75,0,0],[1,0.25,0],[1,0.5,0],[1,0.75,0],[0.75,1,0],[0.5,1,0],[0.25,1,0],[0,0.75,0],[0,0.5,0],[0,0.25,0]];" vertex="1" parent="ow6HCTajVvfa3-Voc0vE-16">
            <mxGeometry x="128" y="158" width="152" height="78" as="geometry" />
          </mxCell>
        </object>
        <object placeholders="1" c4Type="Relationship" c4Technology="" c4Description="Usa" label="&lt;div style=&quot;text-align: left&quot;&gt;&lt;div style=&quot;text-align: center&quot;&gt;&lt;b&gt;%c4Description%&lt;/b&gt;&lt;/div&gt;&lt;div style=&quot;text-align: center&quot;&gt;[%c4Technology%]&lt;/div&gt;&lt;/div&gt;" id="ow6HCTajVvfa3-Voc0vE-22">
          <mxCell style="edgeStyle=none;rounded=0;html=1;jettySize=auto;orthogonalLoop=1;strokeColor=#707070;strokeWidth=2;fontColor=#707070;jumpStyle=none;dashed=1;metaEdit=1;metaData={&quot;c4Type&quot;:{&quot;editable&quot;:false}};entryX=0.5;entryY=1;entryDx=0;entryDy=0;entryPerimeter=0;exitX=0.5;exitY=0;exitDx=0;exitDy=0;exitPerimeter=0;" edge="1" parent="1rxxj6Tkf9t04wxoIUcR-1" target="ow6HCTajVvfa3-Voc0vE-10">
            <mxGeometry x="-0.2157" y="10" width="160" relative="1" as="geometry">
              <mxPoint x="471" y="393" as="sourcePoint" />
              <mxPoint x="733" y="265" as="targetPoint" />
              <mxPoint as="offset" />
            </mxGeometry>
          </mxCell>
        </object>
        <object placeholders="1" c4Type="Relationship" c4Technology="" c4Description="Consome" label="&lt;div style=&quot;text-align: left&quot;&gt;&lt;div style=&quot;text-align: center&quot;&gt;&lt;b&gt;%c4Description%&lt;/b&gt;&lt;/div&gt;&lt;div style=&quot;text-align: center&quot;&gt;[%c4Technology%]&lt;/div&gt;&lt;/div&gt;" id="ow6HCTajVvfa3-Voc0vE-23">
          <mxCell style="edgeStyle=none;rounded=0;html=1;jettySize=auto;orthogonalLoop=1;strokeColor=#707070;strokeWidth=2;fontColor=#707070;jumpStyle=none;dashed=1;metaEdit=1;metaData={&quot;c4Type&quot;:{&quot;editable&quot;:false}};exitX=1;exitY=0.5;exitDx=0;exitDy=0;exitPerimeter=0;" edge="1" parent="1rxxj6Tkf9t04wxoIUcR-1" target="ow6HCTajVvfa3-Voc0vE-36">
            <mxGeometry x="-0.2157" y="10" width="160" relative="1" as="geometry">
              <mxPoint x="551" y="448" as="sourcePoint" />
              <mxPoint x="829" y="447.9999999999998" as="targetPoint" />
              <mxPoint as="offset" />
              <Array as="points" />
            </mxGeometry>
          </mxCell>
        </object>
        <object placeholders="1" c4Type="Relationship" c4Technology="" c4Description="Gravação" label="&lt;div style=&quot;text-align: left&quot;&gt;&lt;div style=&quot;text-align: center&quot;&gt;&lt;b&gt;%c4Description%&lt;/b&gt;&lt;/div&gt;&lt;div style=&quot;text-align: center&quot;&gt;[%c4Technology%]&lt;/div&gt;&lt;/div&gt;" id="ow6HCTajVvfa3-Voc0vE-24">
          <mxCell style="edgeStyle=none;rounded=0;html=1;jettySize=auto;orthogonalLoop=1;strokeColor=#707070;strokeWidth=2;fontColor=#707070;jumpStyle=none;dashed=1;metaEdit=1;metaData={&quot;c4Type&quot;:{&quot;editable&quot;:false}};exitX=1;exitY=0.5;exitDx=0;exitDy=0;exitPerimeter=0;entryX=0;entryY=0.5;entryDx=0;entryDy=0;entryPerimeter=0;" edge="1" parent="1rxxj6Tkf9t04wxoIUcR-1" source="ow6HCTajVvfa3-Voc0vE-36" target="ow6HCTajVvfa3-Voc0vE-42">
            <mxGeometry x="-0.2445" y="-12" width="160" relative="1" as="geometry">
              <mxPoint x="990" y="418.4999999999998" as="sourcePoint" />
              <mxPoint x="1506.9999999999995" y="467.9999999999998" as="targetPoint" />
              <mxPoint as="offset" />
              <Array as="points">
                <mxPoint x="1160" y="340" />
              </Array>
            </mxGeometry>
          </mxCell>
        </object>
        <mxCell id="ow6HCTajVvfa3-Voc0vE-25" value="" style="group" vertex="1" connectable="0" parent="1rxxj6Tkf9t04wxoIUcR-1">
          <mxGeometry x="358" y="703" width="235" height="240" as="geometry" />
        </mxCell>
        <object placeholders="1" c4Name="" c4Type="ExecutionEnvironment" c4Application="Aplicação" label="&lt;div style=&quot;text-align: left&quot;&gt;%c4Name%&lt;/div&gt;&lt;div style=&quot;text-align: left&quot;&gt;[%c4Application%]&lt;/div&gt;" id="ow6HCTajVvfa3-Voc0vE-26">
          <mxCell style="rounded=1;whiteSpace=wrap;html=1;labelBackgroundColor=none;fillColor=#ffffff;fontColor=#000000;align=left;arcSize=5;strokeColor=#000000;verticalAlign=bottom;metaEdit=1;metaData={&quot;c4Type&quot;:{&quot;editable&quot;:false}};points=[[0.25,0,0],[0.5,0,0],[0.75,0,0],[1,0.25,0],[1,0.5,0],[1,0.75,0],[0.75,1,0],[0.5,1,0],[0.25,1,0],[0,0.75,0],[0,0.5,0],[0,0.25,0]];" vertex="1" parent="ow6HCTajVvfa3-Voc0vE-25">
            <mxGeometry x="2" width="235" height="240" as="geometry" />
          </mxCell>
        </object>
        <object placeholders="1" c4Name="Backend" c4Type="Container" c4Technology="Delphi" c4Description="Clientes" label="&lt;b&gt;%c4Name%&lt;/b&gt;&lt;div&gt;[%c4Type%: %c4Technology%]&lt;/div&gt;&lt;br&gt;&lt;div&gt;%c4Description%&lt;/div&gt;" id="ow6HCTajVvfa3-Voc0vE-27">
          <mxCell style="rounded=1;whiteSpace=wrap;html=1;labelBackgroundColor=none;fillColor=#85BBF0;fontColor=#ffffff;align=center;arcSize=10;strokeColor=#78A8D8;metaEdit=1;metaData={&quot;c4Type&quot;:{&quot;editable&quot;:false}};points=[[0.25,0,0],[0.5,0,0],[0.75,0,0],[1,0.25,0],[1,0.5,0],[1,0.75,0],[0.75,1,0],[0.5,1,0],[0.25,1,0],[0,0.75,0],[0,0.5,0],[0,0.25,0]];" vertex="1" parent="ow6HCTajVvfa3-Voc0vE-25">
            <mxGeometry x="12" y="14" width="96" height="102" as="geometry" />
          </mxCell>
        </object>
        <object placeholders="1" c4Name="Backend" c4Type="Container" c4Technology="Delphi" c4Description="Pedidos" label="&lt;b&gt;%c4Name%&lt;/b&gt;&lt;div&gt;[%c4Type%: %c4Technology%]&lt;/div&gt;&lt;br&gt;&lt;div&gt;%c4Description%&lt;/div&gt;" id="ow6HCTajVvfa3-Voc0vE-28">
          <mxCell style="rounded=1;whiteSpace=wrap;html=1;labelBackgroundColor=none;fillColor=#85BBF0;fontColor=#ffffff;align=center;arcSize=10;strokeColor=#78A8D8;metaEdit=1;metaData={&quot;c4Type&quot;:{&quot;editable&quot;:false}};points=[[0.25,0,0],[0.5,0,0],[0.75,0,0],[1,0.25,0],[1,0.5,0],[1,0.75,0],[0.75,1,0],[0.5,1,0],[0.25,1,0],[0,0.75,0],[0,0.5,0],[0,0.25,0]];" vertex="1" parent="ow6HCTajVvfa3-Voc0vE-25">
            <mxGeometry x="129" y="16" width="96" height="95" as="geometry" />
          </mxCell>
        </object>
        <object placeholders="1" c4Name="Backend" c4Type="Container" c4Technology="Delphi" c4Description="Produtos" label="&lt;b&gt;%c4Name%&lt;/b&gt;&lt;div&gt;[%c4Type%: %c4Technology%]&lt;/div&gt;&lt;br&gt;&lt;div&gt;%c4Description%&lt;/div&gt;" id="ow6HCTajVvfa3-Voc0vE-29">
          <mxCell style="rounded=1;whiteSpace=wrap;html=1;labelBackgroundColor=none;fillColor=#85BBF0;fontColor=#ffffff;align=center;arcSize=10;strokeColor=#78A8D8;metaEdit=1;metaData={&quot;c4Type&quot;:{&quot;editable&quot;:false}};points=[[0.25,0,0],[0.5,0,0],[0.75,0,0],[1,0.25,0],[1,0.5,0],[1,0.75,0],[0.75,1,0],[0.5,1,0],[0.25,1,0],[0,0.75,0],[0,0.5,0],[0,0.25,0]];" vertex="1" parent="ow6HCTajVvfa3-Voc0vE-25">
            <mxGeometry x="130" y="127" width="96" height="76" as="geometry" />
          </mxCell>
        </object>
        <object placeholders="1" c4Name="Backend" c4Type="Container" c4Technology="Delphi" c4Description="Faturamento" label="&lt;b&gt;%c4Name%&lt;/b&gt;&lt;div&gt;[%c4Type%: %c4Technology%]&lt;/div&gt;&lt;br&gt;&lt;div&gt;%c4Description%&lt;/div&gt;" id="ow6HCTajVvfa3-Voc0vE-30">
          <mxCell style="rounded=1;whiteSpace=wrap;html=1;labelBackgroundColor=none;fillColor=#85BBF0;fontColor=#ffffff;align=center;arcSize=10;strokeColor=#78A8D8;metaEdit=1;metaData={&quot;c4Type&quot;:{&quot;editable&quot;:false}};points=[[0.25,0,0],[0.5,0,0],[0.75,0,0],[1,0.25,0],[1,0.5,0],[1,0.75,0],[0.75,1,0],[0.5,1,0],[0.25,1,0],[0,0.75,0],[0,0.5,0],[0,0.25,0]];" vertex="1" parent="ow6HCTajVvfa3-Voc0vE-25">
            <mxGeometry x="12" y="127" width="96" height="77" as="geometry" />
          </mxCell>
        </object>
        <object placeholders="1" c4Type="Relationship" c4Technology="" c4Description="" label="&lt;div style=&quot;text-align: left&quot;&gt;&lt;div style=&quot;text-align: center&quot;&gt;&lt;b&gt;%c4Description%&lt;/b&gt;&lt;/div&gt;&lt;div style=&quot;text-align: center&quot;&gt;[%c4Technology%]&lt;/div&gt;&lt;/div&gt;" id="ow6HCTajVvfa3-Voc0vE-31">
          <mxCell style="edgeStyle=none;rounded=0;html=1;jettySize=auto;orthogonalLoop=1;strokeColor=#707070;strokeWidth=2;fontColor=#707070;jumpStyle=none;dashed=1;metaEdit=1;metaData={&quot;c4Type&quot;:{&quot;editable&quot;:false}};entryX=0.5;entryY=1;entryDx=0;entryDy=0;entryPerimeter=0;" edge="1" parent="1rxxj6Tkf9t04wxoIUcR-1">
            <mxGeometry x="-0.2445" y="-12" width="160" relative="1" as="geometry">
              <mxPoint x="1214" y="883" as="sourcePoint" />
              <mxPoint x="1517" y="842" as="targetPoint" />
              <mxPoint as="offset" />
              <Array as="points">
                <mxPoint x="1517" y="883" />
              </Array>
            </mxGeometry>
          </mxCell>
        </object>
        <object placeholders="1" c4Type="Relationship" c4Technology="" c4Description="Usa" label="&lt;div style=&quot;text-align: left&quot;&gt;&lt;div style=&quot;text-align: center&quot;&gt;&lt;b&gt;%c4Description%&lt;/b&gt;&lt;/div&gt;&lt;div style=&quot;text-align: center&quot;&gt;[%c4Technology%]&lt;/div&gt;&lt;/div&gt;" id="ow6HCTajVvfa3-Voc0vE-32">
          <mxCell style="edgeStyle=none;rounded=0;html=1;jettySize=auto;orthogonalLoop=1;strokeColor=#707070;strokeWidth=2;fontColor=#707070;jumpStyle=none;dashed=1;metaEdit=1;metaData={&quot;c4Type&quot;:{&quot;editable&quot;:false}};entryX=0.5;entryY=1;entryDx=0;entryDy=0;entryPerimeter=0;exitX=0.5;exitY=0;exitDx=0;exitDy=0;exitPerimeter=0;" edge="1" parent="1rxxj6Tkf9t04wxoIUcR-1">
            <mxGeometry x="-0.2157" y="10" width="160" relative="1" as="geometry">
              <mxPoint x="475" y="699" as="sourcePoint" />
              <mxPoint x="475.5" y="651" as="targetPoint" />
              <mxPoint as="offset" />
            </mxGeometry>
          </mxCell>
        </object>
        <object placeholders="1" c4Type="Relationship" c4Technology="" c4Description="Opera" label="&lt;div style=&quot;text-align: left&quot;&gt;&lt;div style=&quot;text-align: center&quot;&gt;&lt;b&gt;%c4Description%&lt;/b&gt;&lt;/div&gt;&lt;div style=&quot;text-align: center&quot;&gt;[%c4Technology%]&lt;/div&gt;&lt;/div&gt;" id="ow6HCTajVvfa3-Voc0vE-33">
          <mxCell style="edgeStyle=none;rounded=0;html=1;jettySize=auto;orthogonalLoop=1;strokeColor=#707070;strokeWidth=2;fontColor=#707070;jumpStyle=none;dashed=1;metaEdit=1;metaData={&quot;c4Type&quot;:{&quot;editable&quot;:false}};entryX=0;entryY=0.25;entryDx=0;entryDy=0;entryPerimeter=0;" edge="1" parent="1rxxj6Tkf9t04wxoIUcR-1">
            <mxGeometry x="-0.2157" y="10" width="160" relative="1" as="geometry">
              <mxPoint x="180.99712589073624" y="602" as="sourcePoint" />
              <mxPoint x="393" y="566.5" as="targetPoint" />
              <mxPoint as="offset" />
              <Array as="points">
                <mxPoint x="181" y="567" />
              </Array>
            </mxGeometry>
          </mxCell>
        </object>
        <object placeholders="1" c4Name="Armazenamento" c4Type="Component" c4Technology="MySQL" c4Description="Data Base ( LEITURA )" label="&lt;b&gt;%c4Name%&lt;/b&gt;&lt;div&gt;[%c4Type%: %c4Technology%]&lt;/div&gt;&lt;br&gt;&lt;div&gt;%c4Description%&lt;/div&gt;" id="ow6HCTajVvfa3-Voc0vE-34">
          <mxCell style="rounded=1;whiteSpace=wrap;html=1;labelBackgroundColor=none;fillColor=#dae8fc;align=center;arcSize=10;strokeColor=#6c8ebf;metaEdit=1;metaData={&quot;c4Type&quot;:{&quot;editable&quot;:false}};points=[[0.25,0,0],[0.5,0,0],[0.75,0,0],[1,0.25,0],[1,0.5,0],[1,0.75,0],[0.75,1,0],[0.5,1,0],[0.25,1,0],[0,0.75,0],[0,0.5,0],[0,0.25,0]];gradientColor=#7ea6e0;" vertex="1" parent="1rxxj6Tkf9t04wxoIUcR-1">
            <mxGeometry x="1422" y="508" width="160" height="110.00000000000001" as="geometry" />
          </mxCell>
        </object>
        <object placeholders="1" c4Name="FrontEnd" c4Type="Container" c4Technology="Java Script , CSS , Html " c4Description="Loja Virtual" label="&lt;b&gt;%c4Name%&lt;/b&gt;&lt;div&gt;[%c4Type%: %c4Technology%]&lt;/div&gt;&lt;br&gt;&lt;div&gt;%c4Description%&lt;/div&gt;" id="ow6HCTajVvfa3-Voc0vE-35">
          <mxCell style="rounded=1;whiteSpace=wrap;html=1;labelBackgroundColor=none;fillColor=#85BBF0;fontColor=#ffffff;align=center;arcSize=10;strokeColor=#78A8D8;metaEdit=1;metaData={&quot;c4Type&quot;:{&quot;editable&quot;:false}};points=[[0.25,0,0],[0.5,0,0],[0.75,0,0],[1,0.25,0],[1,0.5,0],[1,0.75,0],[0.75,1,0],[0.5,1,0],[0.25,1,0],[0,0.75,0],[0,0.5,0],[0,0.25,0]];" vertex="1" parent="1rxxj6Tkf9t04wxoIUcR-1">
            <mxGeometry x="389" y="393" width="157" height="112" as="geometry" />
          </mxCell>
        </object>
        <object placeholders="1" c4Name="Frontend" c4Type="Container" c4Technology="C#" c4Description="Portal de Configuração" label="&lt;b&gt;%c4Name%&lt;/b&gt;&lt;div&gt;[%c4Type%: %c4Technology%]&lt;/div&gt;&lt;br&gt;&lt;div&gt;%c4Description%&lt;/div&gt;" id="ow6HCTajVvfa3-Voc0vE-36">
          <mxCell style="rounded=1;whiteSpace=wrap;html=1;labelBackgroundColor=none;fillColor=#85BBF0;fontColor=#ffffff;align=center;arcSize=10;strokeColor=#78A8D8;metaEdit=1;metaData={&quot;c4Type&quot;:{&quot;editable&quot;:false}};points=[[0.25,0,0],[0.5,0,0],[0.75,0,0],[1,0.25,0],[1,0.5,0],[1,0.75,0],[0.75,1,0],[0.5,1,0],[0.25,1,0],[0,0.75,0],[0,0.5,0],[0,0.25,0]];" vertex="1" parent="1rxxj6Tkf9t04wxoIUcR-1">
            <mxGeometry x="874" y="394" width="157" height="112" as="geometry" />
          </mxCell>
        </object>
        <object placeholders="1" c4Name="BackOfice" c4Type="Container" c4Technology="Delphi" c4Description="ERP" label="&lt;b&gt;%c4Name%&lt;/b&gt;&lt;div&gt;[%c4Type%: %c4Technology%]&lt;/div&gt;&lt;br&gt;&lt;div&gt;%c4Description%&lt;/div&gt;" id="ow6HCTajVvfa3-Voc0vE-37">
          <mxCell style="rounded=1;whiteSpace=wrap;html=1;labelBackgroundColor=none;fillColor=#85BBF0;fontColor=#ffffff;align=center;arcSize=10;strokeColor=#78A8D8;metaEdit=1;metaData={&quot;c4Type&quot;:{&quot;editable&quot;:false}};points=[[0.25,0,0],[0.5,0,0],[0.75,0,0],[1,0.25,0],[1,0.5,0],[1,0.75,0],[0.75,1,0],[0.5,1,0],[0.25,1,0],[0,0.75,0],[0,0.5,0],[0,0.25,0]];" vertex="1" parent="1rxxj6Tkf9t04wxoIUcR-1">
            <mxGeometry x="387" y="531" width="157" height="112" as="geometry" />
          </mxCell>
        </object>
        <object placeholders="1" c4Name="Armazenamento" c4Type="Component" c4Technology="SQLServer" c4Description="Data Base" label="&lt;b&gt;%c4Name%&lt;/b&gt;&lt;div&gt;[%c4Type%: %c4Technology%]&lt;/div&gt;&lt;br&gt;&lt;div&gt;%c4Description%&lt;/div&gt;" id="ow6HCTajVvfa3-Voc0vE-38">
          <mxCell style="rounded=1;whiteSpace=wrap;html=1;labelBackgroundColor=none;fillColor=#dae8fc;align=center;arcSize=10;strokeColor=#6c8ebf;metaEdit=1;metaData={&quot;c4Type&quot;:{&quot;editable&quot;:false}};points=[[0.25,0,0],[0.5,0,0],[0.75,0,0],[1,0.25,0],[1,0.5,0],[1,0.75,0],[0.75,1,0],[0.5,1,0],[0.25,1,0],[0,0.75,0],[0,0.5,0],[0,0.25,0]];gradientColor=#7ea6e0;" vertex="1" parent="1rxxj6Tkf9t04wxoIUcR-1">
            <mxGeometry x="1433" y="732" width="160" height="110.00000000000001" as="geometry" />
          </mxCell>
        </object>
        <object placeholders="1" c4Type="Relationship" c4Technology="" c4Description="Conecta" label="&lt;div style=&quot;text-align: left&quot;&gt;&lt;div style=&quot;text-align: center&quot;&gt;&lt;b&gt;%c4Description%&lt;/b&gt;&lt;/div&gt;&lt;div style=&quot;text-align: center&quot;&gt;[%c4Technology%]&lt;/div&gt;&lt;/div&gt;" id="ow6HCTajVvfa3-Voc0vE-39">
          <mxCell style="edgeStyle=none;rounded=0;html=1;jettySize=auto;orthogonalLoop=1;strokeColor=#707070;strokeWidth=2;fontColor=#707070;jumpStyle=none;dashed=1;metaEdit=1;metaData={&quot;c4Type&quot;:{&quot;editable&quot;:false}};exitX=0.994;exitY=0.571;exitDx=0;exitDy=0;exitPerimeter=0;" edge="1" parent="1rxxj6Tkf9t04wxoIUcR-1" source="ow6HCTajVvfa3-Voc0vE-37">
            <mxGeometry x="-0.2157" y="10" width="160" relative="1" as="geometry">
              <mxPoint x="820" y="593" as="sourcePoint" />
              <mxPoint x="1213" y="883" as="targetPoint" />
              <mxPoint as="offset" />
              <Array as="points">
                <mxPoint x="1213" y="595" />
              </Array>
            </mxGeometry>
          </mxCell>
        </object>
        <mxCell id="ow6HCTajVvfa3-Voc0vE-40" value="" style="endArrow=classic;html=1;rounded=0;exitX=0.5;exitY=1;exitDx=0;exitDy=0;exitPerimeter=0;entryX=0.455;entryY=0.005;entryDx=0;entryDy=0;entryPerimeter=0;" edge="1" parent="1rxxj6Tkf9t04wxoIUcR-1" source="ow6HCTajVvfa3-Voc0vE-34" target="ow6HCTajVvfa3-Voc0vE-38">
          <mxGeometry width="50" height="50" relative="1" as="geometry">
            <mxPoint x="1470" y="683" as="sourcePoint" />
            <mxPoint x="1520" y="633" as="targetPoint" />
            <Array as="points" />
          </mxGeometry>
        </mxCell>
        <mxCell id="ow6HCTajVvfa3-Voc0vE-41" value="&lt;h1 style=&quot;margin-top: 0px;&quot;&gt;Dores&lt;/h1&gt;&lt;div&gt;- Gargalo de Pedidos&lt;/div&gt;&lt;div&gt;- Limitação de 10 mil pedidos/dia&amp;nbsp;&lt;/div&gt;&lt;div&gt;&lt;br&gt;&lt;/div&gt;" style="text;html=1;whiteSpace=wrap;overflow=hidden;rounded=0;" vertex="1" parent="1rxxj6Tkf9t04wxoIUcR-1">
          <mxGeometry x="1735" y="378" width="232" height="120" as="geometry" />
        </mxCell>
        <object placeholders="1" c4Name="Armazenamento" c4Type="Component" c4Technology="MySQL" c4Description="Data Base( ESCRITA )" label="&lt;b&gt;%c4Name%&lt;/b&gt;&lt;div&gt;[%c4Type%: %c4Technology%]&lt;/div&gt;&lt;br&gt;&lt;div&gt;%c4Description%&lt;/div&gt;" id="ow6HCTajVvfa3-Voc0vE-42">
          <mxCell style="rounded=1;whiteSpace=wrap;html=1;labelBackgroundColor=none;fillColor=#dae8fc;align=center;arcSize=10;strokeColor=#6c8ebf;metaEdit=1;metaData={&quot;c4Type&quot;:{&quot;editable&quot;:false}};points=[[0.25,0,0],[0.5,0,0],[0.75,0,0],[1,0.25,0],[1,0.5,0],[1,0.75,0],[0.75,1,0],[0.5,1,0],[0.25,1,0],[0,0.75,0],[0,0.5,0],[0,0.25,0]];gradientColor=#7ea6e0;" vertex="1" parent="1rxxj6Tkf9t04wxoIUcR-1">
            <mxGeometry x="1422" y="283" width="160" height="110.00000000000001" as="geometry" />
          </mxCell>
        </object>
        <mxCell id="ow6HCTajVvfa3-Voc0vE-43" value="" style="endArrow=classic;html=1;rounded=0;entryX=0.5;entryY=0;entryDx=0;entryDy=0;entryPerimeter=0;" edge="1" parent="1rxxj6Tkf9t04wxoIUcR-1" source="ow6HCTajVvfa3-Voc0vE-42" target="ow6HCTajVvfa3-Voc0vE-34">
          <mxGeometry width="50" height="50" relative="1" as="geometry">
            <mxPoint x="1340" y="441.51" as="sourcePoint" />
            <mxPoint x="1537" y="458.4978971255673" as="targetPoint" />
          </mxGeometry>
        </mxCell>
        <mxCell id="ow6HCTajVvfa3-Voc0vE-46" value="CDC" style="edgeLabel;html=1;align=center;verticalAlign=middle;resizable=0;points=[];" vertex="1" connectable="0" parent="ow6HCTajVvfa3-Voc0vE-43">
          <mxGeometry x="-0.1056" y="2" relative="1" as="geometry">
            <mxPoint as="offset" />
          </mxGeometry>
        </mxCell>
        <object placeholders="1" c4Type="Relationship" c4Technology="" c4Description="Consulta" label="&lt;div style=&quot;text-align: left&quot;&gt;&lt;div style=&quot;text-align: center&quot;&gt;&lt;b&gt;%c4Description%&lt;/b&gt;&lt;/div&gt;&lt;div style=&quot;text-align: center&quot;&gt;[%c4Technology%]&lt;/div&gt;&lt;/div&gt;" id="ow6HCTajVvfa3-Voc0vE-44">
          <mxCell style="edgeStyle=none;rounded=0;html=1;jettySize=auto;orthogonalLoop=1;strokeColor=#707070;strokeWidth=2;fontColor=#707070;jumpStyle=none;dashed=1;metaEdit=1;metaData={&quot;c4Type&quot;:{&quot;editable&quot;:false}};exitX=1;exitY=0.5;exitDx=0;exitDy=0;exitPerimeter=0;entryX=0;entryY=0.5;entryDx=0;entryDy=0;entryPerimeter=0;" edge="1" parent="1rxxj6Tkf9t04wxoIUcR-1" target="ow6HCTajVvfa3-Voc0vE-34">
            <mxGeometry x="-0.2445" y="-12" width="160" relative="1" as="geometry">
              <mxPoint x="1041" y="460" as="sourcePoint" />
              <mxPoint x="1432" y="348" as="targetPoint" />
              <mxPoint as="offset" />
              <Array as="points">
                <mxPoint x="1170" y="450" />
              </Array>
            </mxGeometry>
          </mxCell>
        </object>
        <mxCell id="ow6HCTajVvfa3-Voc0vE-47" value="" style="endArrow=classic;html=1;rounded=0;exitX=1;exitY=0.5;exitDx=0;exitDy=0;exitPerimeter=0;entryX=1;entryY=0.5;entryDx=0;entryDy=0;entryPerimeter=0;" edge="1" parent="1rxxj6Tkf9t04wxoIUcR-1" source="ow6HCTajVvfa3-Voc0vE-38" target="ow6HCTajVvfa3-Voc0vE-42">
          <mxGeometry width="50" height="50" relative="1" as="geometry">
            <mxPoint x="1611" y="787.5" as="sourcePoint" />
            <mxPoint x="1600" y="338.5000000000001" as="targetPoint" />
            <Array as="points">
              <mxPoint x="1630" y="787" />
              <mxPoint x="1630" y="580" />
              <mxPoint x="1630" y="338" />
            </Array>
          </mxGeometry>
        </mxCell>
        <mxCell id="AHXntsnLEIyT9rA4cuBz-0" value="&lt;h1 style=&quot;margin-top: 0px;&quot;&gt;Melhorias&lt;/h1&gt;&lt;div&gt;- Aplicação de CQRS&lt;/div&gt;&lt;div&gt;- Segregação de Responsabilidade&lt;/div&gt;&lt;div&gt;&lt;br&gt;&lt;/div&gt;" style="text;html=1;whiteSpace=wrap;overflow=hidden;rounded=0;" vertex="1" parent="1rxxj6Tkf9t04wxoIUcR-1">
          <mxGeometry x="680" y="1040" width="232" height="120" as="geometry" />
        </mxCell>
      </root>
    </mxGraphModel>
  </diagram>
</mxfile>
